<svg width="36" height="36" viewBox="0 0 36 36" fill="none" xmlns="http://www.w3.org/2000/svg">
<g filter="url(#filter0_d_5013_4572)">
<mask id="path-1-outside-1_5013_4572" maskUnits="userSpaceOnUse" x="3" y="3" width="30" height="30" fill="black">
<rect fill="white" x="3" y="3" width="30" height="30"/>
<path d="M22.1006 10.6973L26.8994 7.84863L31 15.1514L26.2012 17.999L31 20.8477L26.8994 28.1504L22.1006 25.3008V31H13.8994V25.3018L9.10059 28.1514L5 20.8486L9.79883 17.999L5 15.1504L9.10059 7.84766L13.8994 10.6963V5H22.1006V10.6973Z"/>
</mask>
<path d="M22.1006 10.6973L26.8994 7.84863L31 15.1514L26.2012 17.999L31 20.8477L26.8994 28.1504L22.1006 25.3008V31H13.8994V25.3018L9.10059 28.1514L5 20.8486L9.79883 17.999L5 15.1504L9.10059 7.84766L13.8994 10.6963V5H22.1006V10.6973Z" fill="#EA867B"/>
<path d="M22.1006 10.6973H20.7579V13.0557L22.7859 11.8518L22.1006 10.6973ZM26.8994 7.84863L28.0701 7.19126L27.3967 5.99203L26.2141 6.69408L26.8994 7.84863ZM31 15.1514L31.6852 16.306L32.8125 15.637L32.1707 14.494L31 15.1514ZM26.2012 17.999L25.516 16.8444L23.5705 17.9988L25.5158 19.1536L26.2012 17.999ZM31 20.8477L32.1707 21.505L32.8124 20.3622L31.6854 19.6931L31 20.8477ZM26.8994 28.1504L26.2139 29.3048L27.3966 30.0072L28.0701 28.8078L26.8994 28.1504ZM22.1006 25.3008L22.7861 24.1463L20.7579 22.942V25.3008H22.1006ZM22.1006 31V32.3426H23.4432V31H22.1006ZM13.8994 31H12.5568V32.3426H13.8994V31ZM13.8994 25.3018H15.2421V22.9429L13.2139 24.1473L13.8994 25.3018ZM9.10059 28.1514L7.92987 28.8087L8.60336 30.0082L9.78611 29.3058L9.10059 28.1514ZM5 20.8486L4.31447 19.6942L3.18765 20.3633L3.82929 21.506L5 20.8486ZM9.79883 17.999L10.4844 19.1535L12.4288 17.9988L10.4842 16.8445L9.79883 17.999ZM5 15.1504L3.82929 14.493L3.18755 15.6359L4.31465 16.3049L5 15.1504ZM9.10059 7.84766L9.78594 6.6931L8.60326 5.99105L7.92987 7.19029L9.10059 7.84766ZM13.8994 10.6963L13.2141 11.8508L15.2421 13.0547V10.6963H13.8994ZM13.8994 5V3.65735H12.5568V5H13.8994ZM22.1006 5H23.4432V3.65735H22.1006V5ZM22.1006 10.6973L22.7859 11.8518L27.5848 9.00319L26.8994 7.84863L26.2141 6.69408L21.4152 9.54271L22.1006 10.6973ZM26.8994 7.84863L25.7287 8.506L29.8293 15.8087L31 15.1514L32.1707 14.494L28.0701 7.19126L26.8994 7.84863ZM31 15.1514L30.3148 13.9967L25.516 16.8444L26.2012 17.999L26.8864 19.1537L31.6852 16.306L31 15.1514ZM26.2012 17.999L25.5158 19.1536L30.3146 22.0022L31 20.8477L31.6854 19.6931L26.8865 16.8445L26.2012 17.999ZM31 20.8477L29.8293 20.1903L25.7287 27.493L26.8994 28.1504L28.0701 28.8078L32.1707 21.505L31 20.8477ZM26.8994 28.1504L27.5849 26.9959L22.7861 24.1463L22.1006 25.3008L21.4151 26.4552L26.2139 29.3048L26.8994 28.1504ZM22.1006 25.3008H20.7579V31H22.1006H23.4432V25.3008H22.1006ZM22.1006 31V29.6574H13.8994V31V32.3426H22.1006V31ZM13.8994 31H15.2421V25.3018H13.8994H12.5568V31H13.8994ZM13.8994 25.3018L13.2139 24.1473L8.41506 26.9969L9.10059 28.1514L9.78611 29.3058L14.5849 26.4562L13.8994 25.3018ZM9.10059 28.1514L10.2713 27.494L6.17071 20.1913L5 20.8486L3.82929 21.506L7.92987 28.8087L9.10059 28.1514ZM5 20.8486L5.68553 22.0031L10.4844 19.1535L9.79883 17.999L9.1133 16.8446L4.31447 19.6942L5 20.8486ZM9.79883 17.999L10.4842 16.8445L5.68535 13.9958L5 15.1504L4.31465 16.3049L9.11347 19.1536L9.79883 17.999ZM5 15.1504L6.17071 15.8078L10.2713 8.50503L9.10059 7.84766L7.92987 7.19029L3.82929 14.493L5 15.1504ZM9.10059 7.84766L8.41523 9.00221L13.2141 11.8508L13.8994 10.6963L14.5848 9.54174L9.78594 6.6931L9.10059 7.84766ZM13.8994 10.6963H15.2421V5H13.8994H12.5568V10.6963H13.8994ZM13.8994 5V6.34265H22.1006V5V3.65735H13.8994V5ZM22.1006 5H20.7579V10.6973H22.1006H23.4432V5H22.1006Z" fill="white" mask="url(#path-1-outside-1_5013_4572)"/>
</g>
<path d="M21.7928 20.008H18.9636M18.9636 20.008L14.2483 20.008L18.9636 13.2719V20.008ZM18.9636 20.008V24.0497" stroke="#FFF2EB" stroke-width="2" stroke-linejoin="bevel"/>
<defs>
<filter id="filter0_d_5013_4572" x="3.18756" y="3.65735" width="30.6991" height="29.7594" filterUnits="userSpaceOnUse" color-interpolation-filters="sRGB">
<feFlood flood-opacity="0" result="BackgroundImageFix"/>
<feColorMatrix in="SourceAlpha" type="matrix" values="0 0 0 0 0 0 0 0 0 0 0 0 0 0 0 0 0 0 127 0" result="hardAlpha"/>
<feOffset dx="1.07412" dy="1.07412"/>
<feComposite in2="hardAlpha" operator="out"/>
<feColorMatrix type="matrix" values="0 0 0 0 0 0 0 0 0 0 0 0 0 0 0 0 0 0 0.1 0"/>
<feBlend mode="normal" in2="BackgroundImageFix" result="effect1_dropShadow_5013_4572"/>
<feBlend mode="normal" in="SourceGraphic" in2="effect1_dropShadow_5013_4572" result="shape"/>
</filter>
</defs>
</svg>
