<svg width="36" height="36" viewBox="0 0 36 36" fill="none" xmlns="http://www.w3.org/2000/svg">
<g filter="url(#filter0_d_5013_4554)">
<mask id="path-1-outside-1_5013_4554" maskUnits="userSpaceOnUse" x="3" y="3" width="30" height="30" fill="black">
<rect fill="white" x="3" y="3" width="30" height="30"/>
<path d="M22.1006 10.6973L26.8994 7.84863L30.999 15.1514L26.2012 17.999L31 20.8477L26.8994 28.1504L22.1006 25.3008V31H13.9004V25.3018L9.10059 28.1514L5 20.8486L9.79883 17.999L5 15.1504L9.10059 7.84766L13.9004 10.6963V5H22.1006V10.6973Z"/>
</mask>
<path d="M22.1006 10.6973L26.8994 7.84863L30.999 15.1514L26.2012 17.999L31 20.8477L26.8994 28.1504L22.1006 25.3008V31H13.9004V25.3018L9.10059 28.1514L5 20.8486L9.79883 17.999L5 15.1504L9.10059 7.84766L13.9004 10.6963V5H22.1006V10.6973Z" fill="#EA867B"/>
<path d="M22.1006 10.6973H20.7579V13.0557L22.7859 11.8518L22.1006 10.6973ZM26.8994 7.84863L28.0702 7.19138L27.3969 5.99196L26.2141 6.69408L26.8994 7.84863ZM30.999 15.1514L31.6843 16.306L32.8114 15.637L32.1698 14.4941L30.999 15.1514ZM26.2012 17.999L25.5159 16.8444L23.5707 17.9989L25.5158 19.1536L26.2012 17.999ZM31 20.8477L32.1707 21.505L32.8124 20.3622L31.6854 19.6931L31 20.8477ZM26.8994 28.1504L26.2139 29.3048L27.3966 30.0072L28.0701 28.8078L26.8994 28.1504ZM22.1006 25.3008L22.7861 24.1463L20.7579 22.942V25.3008H22.1006ZM22.1006 31V32.3426H23.4432V31H22.1006ZM13.9004 31H12.5577V32.3426H13.9004V31ZM13.9004 25.3018H15.243V22.9432L13.215 24.1472L13.9004 25.3018ZM9.10059 28.1514L7.92987 28.8087L8.6033 30.008L9.78601 29.3059L9.10059 28.1514ZM5 20.8486L4.31447 19.6942L3.18765 20.3633L3.82929 21.506L5 20.8486ZM9.79883 17.999L10.4844 19.1535L12.4288 17.9988L10.4842 16.8445L9.79883 17.999ZM5 15.1504L3.82929 14.493L3.18755 15.6359L4.31465 16.3049L5 15.1504ZM9.10059 7.84766L9.78584 6.69304L8.6032 5.99116L7.92987 7.19029L9.10059 7.84766ZM13.9004 10.6963L13.2151 11.8509L15.243 13.0544V10.6963H13.9004ZM13.9004 5V3.65735H12.5577V5H13.9004ZM22.1006 5H23.4432V3.65735H22.1006V5ZM22.1006 10.6973L22.7859 11.8518L27.5848 9.00319L26.8994 7.84863L26.2141 6.69408L21.4152 9.54271L22.1006 10.6973ZM26.8994 7.84863L25.7286 8.50588L29.8282 15.8086L30.999 15.1514L32.1698 14.4941L28.0702 7.19138L26.8994 7.84863ZM30.999 15.1514L30.3137 13.9968L25.5159 16.8444L26.2012 17.999L26.8865 19.1536L31.6843 16.306L30.999 15.1514ZM26.2012 17.999L25.5158 19.1536L30.3146 22.0022L31 20.8477L31.6854 19.6931L26.8865 16.8445L26.2012 17.999ZM31 20.8477L29.8293 20.1903L25.7287 27.493L26.8994 28.1504L28.0701 28.8078L32.1707 21.505L31 20.8477ZM26.8994 28.1504L27.5849 26.9959L22.7861 24.1463L22.1006 25.3008L21.4151 26.4552L26.2139 29.3048L26.8994 28.1504ZM22.1006 25.3008H20.7579V31H22.1006H23.4432V25.3008H22.1006ZM22.1006 31V29.6574H13.9004V31V32.3426H22.1006V31ZM13.9004 31H15.243V25.3018H13.9004H12.5577V31H13.9004ZM13.9004 25.3018L13.215 24.1472L8.41516 26.9969L9.10059 28.1514L9.78601 29.3059L14.5858 26.4563L13.9004 25.3018ZM9.10059 28.1514L10.2713 27.494L6.17071 20.1913L5 20.8486L3.82929 21.506L7.92987 28.8087L9.10059 28.1514ZM5 20.8486L5.68553 22.0031L10.4844 19.1535L9.79883 17.999L9.1133 16.8446L4.31447 19.6942L5 20.8486ZM9.79883 17.999L10.4842 16.8445L5.68535 13.9958L5 15.1504L4.31465 16.3049L9.11347 19.1536L9.79883 17.999ZM5 15.1504L6.17071 15.8078L10.2713 8.50503L9.10059 7.84766L7.92987 7.19029L3.82929 14.493L5 15.1504ZM9.10059 7.84766L8.41533 9.00227L13.2151 11.8509L13.9004 10.6963L14.5856 9.54168L9.78584 6.69304L9.10059 7.84766ZM13.9004 10.6963H15.243V5H13.9004H12.5577V10.6963H13.9004ZM13.9004 5V6.34265H22.1006V5V3.65735H13.9004V5ZM22.1006 5H20.7579V10.6973H22.1006H23.4432V5H22.1006Z" fill="white" mask="url(#path-1-outside-1_5013_4554)"/>
</g>
<path d="M15.0857 15.8159C15.0857 14.9627 15.5597 13.2562 17.5744 13.2562C19.589 13.2562 20.6555 15.3893 19.589 17.5224C18.5224 19.6556 15.0857 21.7886 14.2562 21.7886L20.6555 21.7887" stroke="#FFF2EB" stroke-width="2" stroke-linejoin="bevel"/>
<defs>
<filter id="filter0_d_5013_4554" x="3.18756" y="3.65735" width="30.699" height="29.7594" filterUnits="userSpaceOnUse" color-interpolation-filters="sRGB">
<feFlood flood-opacity="0" result="BackgroundImageFix"/>
<feColorMatrix in="SourceAlpha" type="matrix" values="0 0 0 0 0 0 0 0 0 0 0 0 0 0 0 0 0 0 127 0" result="hardAlpha"/>
<feOffset dx="1.07412" dy="1.07412"/>
<feComposite in2="hardAlpha" operator="out"/>
<feColorMatrix type="matrix" values="0 0 0 0 0 0 0 0 0 0 0 0 0 0 0 0 0 0 0.1 0"/>
<feBlend mode="normal" in2="BackgroundImageFix" result="effect1_dropShadow_5013_4554"/>
<feBlend mode="normal" in="SourceGraphic" in2="effect1_dropShadow_5013_4554" result="shape"/>
</filter>
</defs>
</svg>
