<svg width="36" height="36" viewBox="0 0 36 36" fill="none" xmlns="http://www.w3.org/2000/svg">
<path d="M23.9326 3.61157C24.6993 3.29832 25.5752 3.66623 25.8887 4.43286C26.2018 5.19949 25.834 6.07542 25.0674 6.38892L18.0352 9.26489L15.8477 10.1584C15.9462 10.5899 16 11.0389 16 11.5002C16 12.1553 15.8933 12.7852 15.6992 13.3752C15.7912 13.4256 15.8794 13.4864 15.9619 13.5579L20.5068 17.4973L24.1963 20.6946C25.0331 20.2514 25.9871 20.0002 27 20.0002C30.3137 20.0002 33 22.6865 33 26.0002C32.9999 29.3138 30.3136 32.0002 27 32.0002C25.369 32.0002 23.8911 31.3482 22.8096 30.2922L21.835 30.6584L14.5273 33.4045C13.752 33.6956 12.8871 33.3028 12.5957 32.5276C12.3045 31.7522 12.6973 30.8873 13.4727 30.5959L20.7803 27.8508L21.2393 27.678C21.0844 27.1454 21 26.5827 21 26.0002C21 24.795 21.3561 23.6729 21.9678 22.7327L18.542 19.7639L14.0801 15.8967C13.0093 16.8908 11.5763 17.5002 10 17.5002C6.68637 17.5002 4.00012 14.8138 4 11.5002C4 8.18654 6.68629 5.50024 10 5.50024C11.7697 5.50024 13.3598 6.26683 14.458 7.4856L16.8994 6.48755L23.9326 3.61157ZM27 23.0002C25.3431 23.0002 24 24.3434 24 26.0002C24.0001 27.657 25.3432 29.0002 27 29.0002C28.6568 29.0002 29.9999 27.657 30 26.0002C30 24.3434 28.6569 23.0002 27 23.0002ZM10 8.50024C8.34315 8.50024 7 9.84339 7 11.5002C7.00012 13.157 8.34322 14.5002 10 14.5002C11.6568 14.5002 12.9999 13.157 13 11.5002C13 9.84339 11.6569 8.50024 10 8.50024Z" fill="#FAFBEC"/>
</svg>
