<svg width="24" height="24" viewBox="0 0 24 24" fill="none" xmlns="http://www.w3.org/2000/svg">
<path d="M16 16.9375C16 19.1466 14.2091 20.9375 12 20.9375C9.79086 20.9375 8 19.1466 8 16.9375" stroke="#303030" stroke-width="1.7"/>
<path d="M4.69231 10.0282C4.66148 6.12119 7.82015 2.9375 11.7273 2.9375C15.6344 2.9375 18.7931 6.12119 18.7622 10.0282L18.7368 13.2478C18.7365 13.287 18.7474 13.3255 18.7681 13.3588L20.0463 15.4083C20.4617 16.0744 19.9828 16.9375 19.1978 16.9375H11.7273H4.57976C3.84576 16.9375 3.36186 16.1731 3.67592 15.5096L4.69792 13.3507C4.71126 13.3225 4.71805 13.2917 4.71781 13.2605L4.69231 10.0282Z" stroke="#303030" stroke-width="1.7"/>
</svg>
