<svg width="36" height="36" viewBox="0 0 36 36" fill="none" xmlns="http://www.w3.org/2000/svg">
<path d="M30.7764 29.127C30.7764 30.2315 29.8809 31.127 28.7764 31.127H7.22363C6.11906 31.127 5.22363 30.2315 5.22363 29.127V18.7529C5.22363 17.6484 6.11906 16.7529 7.22363 16.7529H11.8584C12.3503 16.7529 12.749 17.1517 12.749 17.6436C12.7492 20.5433 15.1002 22.8936 18 22.8936C20.8997 22.8935 23.2508 20.5433 23.251 17.6436C23.251 17.1517 23.6497 16.7529 24.1416 16.7529H28.7764C29.8809 16.7529 30.7764 17.6484 30.7764 18.7529V29.127Z" fill="#242424"/>
<path d="M29.3148 5.70843C30.412 5.83545 31.1985 6.82791 31.0715 7.92515L30.6132 11.8841C30.4862 12.9813 29.4937 13.7678 28.3965 13.6408L6.98674 11.1624C5.88949 11.0353 5.10297 10.0429 5.22999 8.94565L5.68829 4.98673C5.8153 3.88949 6.80776 3.10297 7.90501 3.22999L29.3148 5.70843Z" fill="#242424"/>
</svg>
