<svg width="24" height="24" viewBox="0 0 24 24" fill="none" xmlns="http://www.w3.org/2000/svg">
<path d="M4.90786 16.0555C4.47139 16.4922 4.47142 17.2002 4.90811 17.6367L6.36488 19.0928C6.8013 19.529 7.50873 19.5289 7.94505 19.0926V19.0926C8.64897 18.3887 9.85264 18.8871 9.85264 19.8826V19.8826C9.85264 20.4997 10.3529 21 10.97 21H13.0314C13.6485 21 14.1488 20.4997 14.1488 19.8826V19.8826C14.1488 18.8871 15.3523 18.3886 16.0563 19.0925V19.0925C16.4926 19.5288 17.2001 19.5288 17.6365 19.0925L19.0922 17.6367C19.5288 17.2002 19.5287 16.4923 19.0922 16.0556V16.0556C18.3884 15.3514 18.8867 14.1474 19.8823 14.1474V14.1474C20.4996 14.1474 21 13.647 21 13.0297V10.97C21 10.3529 20.4997 9.85264 19.8826 9.85264V9.85264C18.8871 9.85264 18.3887 8.64897 19.0926 7.94505V7.94505C19.5289 7.50873 19.529 6.8013 19.0928 6.36488L17.6364 4.90784C17.2001 4.47133 16.4925 4.47125 16.0561 4.90766V4.90766C15.3523 5.61152 14.1488 5.11287 14.1488 4.11745V4.11745C14.1488 3.50033 13.6485 3 13.0314 3H10.97C10.3529 3 9.85264 3.50028 9.85264 4.1174V4.1174C9.85264 5.11288 8.64906 5.61144 7.94515 4.90753V4.90753C7.50878 4.47116 6.8013 4.47116 6.36493 4.90753L4.90753 6.36493C4.47116 6.8013 4.47116 7.50878 4.90753 7.94515V7.94515C5.61144 8.64906 5.11288 9.85264 4.1174 9.85264V9.85264C3.50028 9.85264 3 10.3529 3 10.97V13.0297C3 13.647 3.5004 14.1474 4.11768 14.1474V14.1474C5.11329 14.1474 5.61168 15.3513 4.90786 16.0555V16.0555Z" stroke="#242424" stroke-width="1.5"/>
<circle cx="12" cy="12" r="4" stroke="#242424" stroke-width="1.5"/>
</svg>
