<svg width="40" height="58" viewBox="0 0 40 58" fill="none" xmlns="http://www.w3.org/2000/svg">
<path d="M26.3086 8.61719L33.7148 4.2998L40 15.292L32.5703 19.6221L40 23.9541L33.7148 34.9463L26.3086 30.6279V39.2451H13.6914V30.6289L6.28613 34.9463L0.000976562 23.9541L7.42969 19.6221L0.000976562 15.292L6.28613 4.2998L13.6914 8.61621V0H26.3086V8.61719Z" fill="#D7E6B0"/>
<path d="M27.54 44.5185C26.7815 45.8679 25.7435 46.9233 24.4291 47.6877C23.1116 48.4522 21.6529 48.8329 20.0468 48.8329C18.4406 48.8329 16.9143 48.4522 15.5969 47.6877C14.2794 46.9233 13.2445 45.8679 12.4859 44.5185C11.7274 43.1692 11.3496 41.665 11.3496 40.0031H1.65137C1.65137 43.3734 2.4529 46.4312 4.05904 49.1702C5.66519 51.9123 7.87325 54.0695 10.6832 55.6417C13.4932 57.2139 16.6134 58 20.0498 58C23.4863 58 26.6065 57.2139 29.4164 55.6417C32.2264 54.0695 34.4222 51.9123 36.0068 49.1702C37.5884 46.4281 38.3807 43.3734 38.3807 40.0031H28.6794C28.6794 41.665 28.2986 43.1723 27.5431 44.5185H27.54Z" fill="white"/>
</svg>
