<svg width="40" height="61" viewBox="0 0 40 61" fill="none" xmlns="http://www.w3.org/2000/svg">
<path d="M2.48315 31.0234L9.23342 37.7705L15.2281 31.7758V40.2537H24.775V31.7758L30.7697 37.7705L37.5169 31.0234L31.5222 25.0256H40V15.4818H31.5222L37.5169 9.48708L30.7697 2.73681L24.775 8.73148V0.253662H15.2281V8.73148L9.23342 2.73681L2.48315 9.48708L8.47782 15.4818H0V25.0256H8.47782L2.48315 31.0234Z" fill="#B4B2DB"/>
<path d="M27.6188 46.4109C26.8507 47.8316 25.7996 48.9427 24.4686 49.7475C23.1345 50.5523 21.6573 50.9531 20.0309 50.9531C18.4045 50.9531 16.8589 50.5523 15.5248 49.7475C14.1907 48.9427 13.1427 47.8316 12.3746 46.4109C11.6065 44.9903 11.224 43.4067 11.224 41.657H1.40332C1.40332 45.2053 2.21497 48.4246 3.84139 51.3082C5.4678 54.1952 7.70374 56.4662 10.5492 58.1215C13.3946 59.7767 16.5542 60.6043 20.034 60.6043C23.5139 60.6043 26.6734 59.7767 29.5189 58.1215C32.3643 56.4662 34.5878 54.1952 36.1924 51.3082C37.794 48.4213 38.5963 45.2053 38.5963 41.657H28.7725C28.7725 43.4067 28.3869 44.9935 27.6219 46.4109H27.6188Z" fill="#B4B2DB"/>
</svg>
