<svg width="40" height="58" viewBox="0 0 40 58" fill="none" xmlns="http://www.w3.org/2000/svg">
<path d="M26.3086 8.61719L33.7148 4.2998L40 15.292L32.5703 19.6221L40 23.9541L33.7148 34.9463L26.3086 30.6279V39.2451H13.6914V30.6289L6.28613 34.9463L0.000976562 23.9541L7.42969 19.6221L0.000976562 15.292L6.28613 4.2998L13.6914 8.61621V0H26.3086V8.61719Z" fill="#B4B2DB"/>
<path d="M27.5403 44.5185C26.7818 45.8679 25.7438 46.9233 24.4294 47.6877C23.1119 48.4522 21.6532 48.8329 20.047 48.8329C18.4409 48.8329 16.9146 48.4522 15.5971 47.6877C14.2797 46.9233 13.2447 45.8679 12.4862 44.5185C11.7276 43.1692 11.3499 41.665 11.3499 40.0031H1.65164C1.65164 43.3734 2.45318 46.4312 4.05932 49.1702C5.66546 51.9123 7.87352 54.0695 10.6835 55.6417C13.4935 57.2139 16.6136 58 20.0501 58C23.4866 58 26.6067 57.2139 29.4167 55.6417C32.2267 54.0695 34.4225 51.9123 36.0071 49.1702C37.5887 46.4281 38.381 43.3734 38.381 40.0031H28.6797C28.6797 41.665 28.2989 43.1723 27.5434 44.5185H27.5403Z" fill="#B4B2DB"/>
</svg>
