<svg width="36" height="36" viewBox="0 0 36 36" fill="none" xmlns="http://www.w3.org/2000/svg">
<g filter="url(#filter0_d_5209_53)">
<mask id="path-1-outside-1_5209_53" maskUnits="userSpaceOnUse" x="3" y="3" width="30" height="30" fill="black">
<rect fill="white" x="3" y="3" width="30" height="30"/>
<path d="M22.1006 10.6963L26.8984 7.84863L31 15.1514L26.2002 17.999L31 20.8486L26.8984 28.1523L22.1006 25.3037V31H13.8994V25.3018L9.10059 28.1514L5 20.8486L9.79688 18L5 15.1523L9.10059 7.84863L13.8994 10.6973V5H22.1006V10.6963Z"/>
</mask>
<path d="M22.1006 10.6963L26.8984 7.84863L31 15.1514L26.2002 17.999L31 20.8486L26.8984 28.1523L22.1006 25.3037V31H13.8994V25.3018L9.10059 28.1514L5 20.8486L9.79688 18L5 15.1523L9.10059 7.84863L13.8994 10.6973V5H22.1006V10.6963Z" fill="#EA867B"/>
<path d="M22.1006 10.6963H21.0232V12.5887L22.6505 11.6228L22.1006 10.6963ZM26.8984 7.84863L27.8378 7.32102L27.2975 6.35888L26.3485 6.92211L26.8984 7.84863ZM31 15.1514L31.5498 16.078L32.4546 15.5411L31.9394 14.6238L31 15.1514ZM26.2002 17.999L25.6504 17.0724L24.0891 17.9987L25.6502 18.9255L26.2002 17.999ZM31 20.8486L31.9394 21.3762L32.4544 20.4591L31.55 19.9222L31 20.8486ZM26.8984 28.1523L26.3484 29.0788L27.2974 29.6423L27.8379 28.6799L26.8984 28.1523ZM22.1006 25.3037L22.6506 24.3773L21.0232 23.411V25.3037H22.1006ZM22.1006 31V32.0774H23.178V31H22.1006ZM13.8994 31H12.822V32.0774H13.8994V31ZM13.8994 25.3018H14.9768V23.4089L13.3493 24.3753L13.8994 25.3018ZM9.10059 28.1514L8.16113 28.6789L8.70158 29.6414L9.6507 29.0778L9.10059 28.1514ZM5 20.8486L4.44986 19.9222L3.54566 20.4592L4.06054 21.3762L5 20.8486ZM9.79688 18L10.347 18.9264L11.9073 17.9998L10.3469 17.0735L9.79688 18ZM5 15.1523L4.06051 14.6249L3.54563 15.5419L4.45 16.0788L5 15.1523ZM9.10059 7.84863L9.65056 6.92214L8.70144 6.35873L8.1611 7.32117L9.10059 7.84863ZM13.8994 10.6973L13.3494 11.6238L14.9768 12.5898V10.6973H13.8994ZM13.8994 5V3.92257H12.822V5H13.8994ZM22.1006 5H23.178V3.92257H22.1006V5ZM22.1006 10.6963L22.6505 11.6228L27.4484 8.77516L26.8984 7.84863L26.3485 6.92211L21.5507 9.76976L22.1006 10.6963ZM26.8984 7.84863L25.959 8.37625L30.0606 15.679L31 15.1514L31.9394 14.6238L27.8378 7.32102L26.8984 7.84863ZM31 15.1514L30.4502 14.2247L25.6504 17.0724L26.2002 17.999L26.7499 18.9256L31.5498 16.078L31 15.1514ZM26.2002 17.999L25.6502 18.9255L30.45 21.7751L31 20.8486L31.55 19.9222L26.7502 17.0726L26.2002 17.999ZM31 20.8486L30.0606 20.3211L25.959 27.6248L26.8984 28.1523L27.8379 28.6799L31.9394 21.3762L31 20.8486ZM26.8984 28.1523L27.4485 27.2259L22.6506 24.3773L22.1006 25.3037L21.5505 26.2302L26.3484 29.0788L26.8984 28.1523ZM22.1006 25.3037H21.0232V31H22.1006H23.178V25.3037H22.1006ZM22.1006 31V29.9226H13.8994V31V32.0774H22.1006V31ZM13.8994 31H14.9768V25.3018H13.8994H12.822V31H13.8994ZM13.8994 25.3018L13.3493 24.3753L8.55047 27.225L9.10059 28.1514L9.6507 29.0778L14.4495 26.2282L13.8994 25.3018ZM9.10059 28.1514L10.04 27.6238L5.93946 20.3211L5 20.8486L4.06054 21.3762L8.16113 28.6789L9.10059 28.1514ZM5 20.8486L5.55014 21.775L10.347 18.9264L9.79688 18L9.24673 17.0736L4.44986 19.9222L5 20.8486ZM9.79688 18L10.3469 17.0735L5.55 14.2259L5 15.1523L4.45 16.0788L9.24687 18.9265L9.79688 18ZM5 15.1523L5.93949 15.6798L10.0401 8.3761L9.10059 7.84863L8.1611 7.32117L4.06051 14.6249L5 15.1523ZM9.10059 7.84863L8.55061 8.77513L13.3494 11.6238L13.8994 10.6973L14.4494 9.77077L9.65056 6.92214L9.10059 7.84863ZM13.8994 10.6973H14.9768V5H13.8994H12.822V10.6973H13.8994ZM13.8994 5V6.07743H22.1006V5V3.92257H13.8994V5ZM22.1006 5H21.0232V10.6963H22.1006H23.178V5H22.1006Z" fill="white" mask="url(#path-1-outside-1_5209_53)"/>
</g>
<path d="M21.3425 15.5624C20.342 13.3463 17.6098 13.1031 16.353 14.676C15.32 15.9687 15.0786 17.9995 15.4666 19.5513M15.4666 19.5513C16.353 23.0971 20.6805 23.0971 21.3425 20.4378C22.1148 17.3352 17.6826 15.1192 15.4666 19.5513Z" stroke="#FFF2EB" stroke-width="2" stroke-linejoin="bevel"/>
<defs>
<filter id="filter0_d_5209_53" x="3.54565" y="3.92255" width="29.7709" height="29.0169" filterUnits="userSpaceOnUse" color-interpolation-filters="sRGB">
<feFlood flood-opacity="0" result="BackgroundImageFix"/>
<feColorMatrix in="SourceAlpha" type="matrix" values="0 0 0 0 0 0 0 0 0 0 0 0 0 0 0 0 0 0 127 0" result="hardAlpha"/>
<feOffset dx="0.861947" dy="0.861947"/>
<feComposite in2="hardAlpha" operator="out"/>
<feColorMatrix type="matrix" values="0 0 0 0 0 0 0 0 0 0 0 0 0 0 0 0 0 0 0.1 0"/>
<feBlend mode="normal" in2="BackgroundImageFix" result="effect1_dropShadow_5209_53"/>
<feBlend mode="normal" in="SourceGraphic" in2="effect1_dropShadow_5209_53" result="shape"/>
</filter>
</defs>
</svg>
