<svg width="28" height="29" viewBox="0 0 28 29" fill="none" xmlns="http://www.w3.org/2000/svg">
<path d="M18.4969 8.05639C18.6708 8.05639 18.94 8.07663 19.3043 8.11709C19.677 8.14946 20.0994 8.23849 20.5714 8.38416C21.0435 8.52984 21.5238 8.76454 22.0124 9.08826C22.501 9.41198 22.9524 9.86519 23.3665 10.4479C23.3251 10.4722 23.1677 10.5814 22.8944 10.7757C22.6294 10.9699 22.3271 11.2532 21.9876 11.6254C21.648 11.9896 21.3499 12.455 21.0932 13.0215C20.8447 13.5799 20.7205 14.2476 20.7205 15.0245C20.7205 15.9148 20.8778 16.6674 21.1925 17.2825C21.5155 17.8976 21.8882 18.3953 22.3106 18.7757C22.7412 19.156 23.1222 19.4352 23.4534 19.6133C23.793 19.7833 23.9752 19.8723 24 19.8804C23.9917 19.9127 23.9296 20.0948 23.8137 20.4267C23.6977 20.7504 23.5155 21.1712 23.2671 21.6892C23.0269 22.199 22.7122 22.7332 22.323 23.2916C21.9669 23.7853 21.5983 24.2587 21.2174 24.7119C20.8447 25.1651 20.4348 25.5334 19.9876 25.8166C19.5487 26.108 19.0518 26.2537 18.4969 26.2537C18.0745 26.2537 17.7143 26.2051 17.4161 26.108C17.118 26.0109 16.8323 25.8976 16.559 25.7681C16.294 25.6467 16 25.5374 15.677 25.4403C15.354 25.3432 14.9524 25.2946 14.472 25.2946C13.8427 25.2946 13.3168 25.3715 12.8944 25.5253C12.4803 25.6871 12.087 25.849 11.7143 26.0109C11.3416 26.1727 10.9027 26.2537 10.3975 26.2537C9.62733 26.2537 8.94824 25.9583 8.36025 25.3675C7.78054 24.7767 7.18427 24.0645 6.57143 23.2309C6.09938 22.5673 5.66874 21.8025 5.2795 20.9365C4.89027 20.0706 4.57971 19.152 4.34783 18.1808C4.11594 17.2097 4 16.2385 4 15.2673C4 13.7134 4.30228 12.4024 4.90683 11.3341C5.51139 10.2577 6.28571 9.44436 7.22981 8.89403C8.17391 8.3356 9.15528 8.05639 10.1739 8.05639C10.7122 8.05639 11.2174 8.14946 11.6894 8.3356C12.1698 8.52175 12.617 8.70789 13.0311 8.89403C13.4451 9.07207 13.8219 9.1611 14.1615 9.1611C14.4845 9.1611 14.8654 9.07207 15.3043 8.89403C15.7433 8.70789 16.2277 8.52175 16.7578 8.3356C17.2961 8.14946 17.8758 8.05639 18.4969 8.05639ZM17.6273 6.08978C17.2133 6.58345 16.6915 6.99215 16.0621 7.31588C15.441 7.6396 14.853 7.80146 14.2981 7.80146C14.1822 7.80146 14.0704 7.78932 13.9627 7.76504C13.9545 7.73267 13.942 7.67602 13.9255 7.59509C13.9172 7.51416 13.913 7.42513 13.913 7.32802C13.913 6.71294 14.0497 6.11406 14.323 5.53136C14.5963 4.94865 14.911 4.46307 15.2671 4.0746C15.706 3.56474 16.2609 3.13985 16.9317 2.79994C17.6108 2.46004 18.2609 2.27794 18.882 2.25366C18.9068 2.39124 18.9193 2.54906 18.9193 2.72711C18.9193 3.35027 18.7992 3.95725 18.559 4.54805C18.3188 5.13075 18.0083 5.64466 17.6273 6.08978Z" fill="white"/>
</svg>
