<svg width="36" height="36" viewBox="0 0 36 36" fill="none" xmlns="http://www.w3.org/2000/svg">
<g filter="url(#filter0_d_5067_689)">
<mask id="path-1-outside-1_5067_689" maskUnits="userSpaceOnUse" x="4" y="5" width="28" height="26" fill="black">
<rect fill="white" x="4" y="5" width="28" height="26"/>
<path d="M21.7852 11.2578L26.2139 8.62891L30 15.3711L25.5703 18L30 20.6299L26.2139 27.3711L21.7852 24.7412V30H14.2148V24.7412L9.78516 27.3711L6 20.6289L10.4277 17.999L6 15.3711L9.78516 8.62988L14.2148 11.2588V6H21.7852V11.2578Z"/>
</mask>
<path d="M21.7852 11.2578L26.2139 8.62891L30 15.3711L25.5703 18L30 20.6299L26.2139 27.3711L21.7852 24.7412V30H14.2148V24.7412L9.78516 27.3711L6 20.6289L10.4277 17.999L6 15.3711L9.78516 8.62988L14.2148 11.2588V6H21.7852V11.2578Z" fill="#595880"/>
<path d="M21.7852 11.2578H20.7906V13.0048L22.2928 12.113L21.7852 11.2578ZM26.2139 8.62891L27.081 8.14194L26.5822 7.25367L25.7062 7.77368L26.2139 8.62891ZM30 15.3711L30.5076 16.2264L31.3426 15.7308L30.8672 14.8841L30 15.3711ZM25.5703 18L25.0627 17.1447L23.6219 17.9998L25.0626 18.8552L25.5703 18ZM30 20.6299L30.8671 21.1169L31.3426 20.2704L30.5077 19.7747L30 20.6299ZM26.2139 27.3711L25.7061 28.2262L26.5821 28.7464L27.081 27.8581L26.2139 27.3711ZM21.7852 24.7412L22.293 23.8861L20.7906 22.9939V24.7412H21.7852ZM21.7852 30V30.9946H22.7797V30H21.7852ZM14.2148 30H13.2203V30.9946H14.2148V30ZM14.2148 24.7412H15.2094V22.9941L13.7071 23.886L14.2148 24.7412ZM9.78516 27.3711L8.91793 27.858L9.41673 28.7465L10.2929 28.2263L9.78516 27.3711ZM6 20.6289L5.49211 19.7738L4.65763 20.2695L5.13277 21.1158L6 20.6289ZM10.4277 17.999L10.9356 18.8541L12.3758 17.9987L10.9353 17.1438L10.4277 17.999ZM6 15.3711L5.1328 14.8842L4.65742 15.7308L5.49239 16.2264L6 15.3711ZM9.78516 8.62988L10.2927 7.77461L9.4167 7.2547L8.91796 8.14295L9.78516 8.62988ZM14.2148 11.2588L13.7073 12.1141L15.2094 13.0055V11.2588H14.2148ZM14.2148 6V5.00545H13.2203V6H14.2148ZM21.7852 6H22.7797V5.00545H21.7852V6ZM21.7852 11.2578L22.2928 12.113L26.7215 9.48413L26.2139 8.62891L25.7062 7.77368L21.2775 10.4026L21.7852 11.2578ZM26.2139 8.62891L25.3467 9.11588L29.1328 15.8581L30 15.3711L30.8672 14.8841L27.081 8.14194L26.2139 8.62891ZM30 15.3711L29.4924 14.5158L25.0627 17.1447L25.5703 18L26.0779 18.8553L30.5076 16.2264L30 15.3711ZM25.5703 18L25.0626 18.8552L29.4923 21.4851L30 20.6299L30.5077 19.7747L26.078 17.1448L25.5703 18ZM30 20.6299L29.1329 20.1429L25.3467 26.8841L26.2139 27.3711L27.081 27.8581L30.8671 21.1169L30 20.6299ZM26.2139 27.3711L26.7217 26.516L22.293 23.8861L21.7852 24.7412L21.2774 25.5964L25.7061 28.2262L26.2139 27.3711ZM21.7852 24.7412H20.7906V30H21.7852H22.7797V24.7412H21.7852ZM21.7852 30V29.0054H14.2148V30V30.9946H21.7852V30ZM14.2148 30H15.2094V24.7412H14.2148H13.2203V30H14.2148ZM14.2148 24.7412L13.7071 23.886L9.27743 26.5159L9.78516 27.3711L10.2929 28.2263L14.7226 25.5964L14.2148 24.7412ZM9.78516 27.3711L10.6524 26.8842L6.86723 20.142L6 20.6289L5.13277 21.1158L8.91793 27.858L9.78516 27.3711ZM6 20.6289L6.50789 21.484L10.9356 18.8541L10.4277 17.999L9.91985 17.1439L5.49211 19.7738L6 20.6289ZM10.4277 17.999L10.9353 17.1438L6.50761 14.5158L6 15.3711L5.49239 16.2264L9.92012 18.8543L10.4277 17.999ZM6 15.3711L6.8672 15.858L10.6524 9.11681L9.78516 8.62988L8.91796 8.14295L5.1328 14.8842L6 15.3711ZM9.78516 8.62988L9.27757 9.48516L13.7073 12.1141L14.2148 11.2588L14.7224 10.4035L10.2927 7.77461L9.78516 8.62988ZM14.2148 11.2588H15.2094V6H14.2148H13.2203V11.2588H14.2148ZM14.2148 6V6.99455H21.7852V6V5.00545H14.2148V6ZM21.7852 6H20.7906V11.2578H21.7852H22.7797V6H21.7852Z" fill="white" mask="url(#path-1-outside-1_5067_689)"/>
</g>
<path d="M21.5 14.636L16 14.5V17.5L18.4954 17.369C20.0135 17.2893 21.1957 18.6685 20.885 20.1566V20.1566C20.6607 21.2305 19.7139 22 18.6168 22H15.5" stroke="#E8E8FF" stroke-width="1.5" stroke-linejoin="bevel"/>
<defs>
<filter id="filter0_d_5067_689" x="4.65741" y="5.00543" width="27.4809" height="26.7848" filterUnits="userSpaceOnUse" color-interpolation-filters="sRGB">
<feFlood flood-opacity="0" result="BackgroundImageFix"/>
<feColorMatrix in="SourceAlpha" type="matrix" values="0 0 0 0 0 0 0 0 0 0 0 0 0 0 0 0 0 0 127 0" result="hardAlpha"/>
<feOffset dx="0.795643" dy="0.795643"/>
<feComposite in2="hardAlpha" operator="out"/>
<feColorMatrix type="matrix" values="0 0 0 0 0 0 0 0 0 0 0 0 0 0 0 0 0 0 0.1 0"/>
<feBlend mode="normal" in2="BackgroundImageFix" result="effect1_dropShadow_5067_689"/>
<feBlend mode="normal" in="SourceGraphic" in2="effect1_dropShadow_5067_689" result="shape"/>
</filter>
</defs>
</svg>
