<svg width="36" height="37" viewBox="0 0 36 37" fill="none" xmlns="http://www.w3.org/2000/svg">
<mask id="path-1-outside-1_1835_3725" maskUnits="userSpaceOnUse" x="3.79768" y="0.790161" width="27" height="36" fill="black">
<rect fill="white" x="3.79768" y="0.790161" width="27" height="36"/>
<path d="M17.5526 1.79016C24.5969 1.79016 30.3074 7.36259 30.3074 14.2365C30.3074 24.4713 24.0471 25.46 17.729 36.1103C17.6509 36.2421 17.4543 36.2421 17.3761 36.1103C11.0581 25.4601 4.79768 24.4713 4.79768 14.2365C4.79768 7.36261 10.5083 1.7902 17.5526 1.79016Z"/>
</mask>
<path d="M17.5526 1.79016C24.5969 1.79016 30.3074 7.36259 30.3074 14.2365C30.3074 24.4713 24.0471 25.46 17.729 36.1103C17.6509 36.2421 17.4543 36.2421 17.3761 36.1103C11.0581 25.4601 4.79768 24.4713 4.79768 14.2365C4.79768 7.36261 10.5083 1.7902 17.5526 1.79016Z" fill="#242424" fill-opacity="0.2"/>
<path d="M17.5526 1.79016V1.39016H17.5526L17.5526 1.79016ZM30.3074 14.2365H30.7074H30.3074ZM4.79768 14.2365H4.39768H4.79768ZM17.729 36.1103L18.073 36.3144L17.729 36.1103ZM17.3761 36.1103L17.7201 35.9062L17.3761 36.1103ZM17.5526 1.79016V2.19016C24.3852 2.19016 29.9074 7.59268 29.9074 14.2365H30.3074H30.7074C30.7074 7.13249 24.8085 1.39016 17.5526 1.39016V1.79016ZM30.3074 14.2365H29.9074C29.9074 16.7524 29.5231 18.6811 28.8596 20.3246C28.1954 21.97 27.2432 23.3501 26.0788 24.7632C23.7579 27.5798 20.5648 30.5461 17.385 35.9062L17.729 36.1103L18.073 36.3144C21.2113 31.0242 24.3074 28.171 26.6962 25.2719C27.8866 23.8272 28.8944 22.3754 29.6015 20.6241C30.3092 18.8708 30.7074 16.838 30.7074 14.2365H30.3074ZM17.3761 36.1103L17.7201 35.9062C14.5404 30.5461 11.3472 27.5798 9.02633 24.7632C7.86192 23.3501 6.90975 21.97 6.2455 20.3246C5.58202 18.6811 5.19768 16.7523 5.19768 14.2365H4.79768H4.39768C4.39768 16.838 4.79588 18.8708 5.50367 20.6241C6.21068 22.3754 7.21848 23.8272 8.40893 25.272C10.7978 28.171 13.8938 31.0242 17.0321 36.3144L17.3761 36.1103ZM4.79768 14.2365H5.19768C5.19768 7.59271 10.7199 2.1902 17.5526 2.19016L17.5526 1.79016L17.5526 1.39016C10.2967 1.39021 4.39768 7.13252 4.39768 14.2365H4.79768ZM17.729 36.1103L17.385 35.9062C17.4255 35.838 17.4954 35.8091 17.5526 35.8091C17.6097 35.8091 17.6796 35.838 17.7201 35.9062L17.3761 36.1103L17.0321 36.3144C17.2652 36.7074 17.8399 36.7074 18.073 36.3144L17.729 36.1103Z" fill="#242424" fill-opacity="0.2" mask="url(#path-1-outside-1_1835_3725)"/>
<path d="M17.2375 1.21448C24.2818 1.21448 29.9924 6.7869 29.9924 13.6608C29.9924 23.8956 23.732 24.8843 17.414 35.5346C17.3358 35.6664 17.1392 35.6664 17.0611 35.5346C10.743 24.8844 4.48264 23.8956 4.48264 13.6608C4.48264 6.78693 10.1933 1.21452 17.2375 1.21448Z" fill="#595880"/>
<path d="M17.2375 1.21448V0.964478H17.2375L17.2375 1.21448ZM29.9924 13.6608H30.2424H29.9924ZM4.48264 13.6608H4.23264H4.48264ZM17.414 35.5346L17.629 35.6622L17.414 35.5346ZM17.0611 35.5346L16.8461 35.6622L17.0611 35.5346ZM17.2375 1.21448V1.46448C24.1495 1.46448 29.7424 6.93071 29.7424 13.6608H29.9924H30.2424C30.2424 6.64309 24.4141 0.964478 17.2375 0.964478V1.21448ZM29.9924 13.6608H29.7424C29.7424 16.1927 29.3555 18.141 28.6837 19.8051C28.0114 21.4704 27.0488 22.8639 25.8795 24.2829C23.5459 27.115 20.3709 30.0601 17.199 35.4071L17.414 35.5346L17.629 35.6622C20.775 30.3589 23.8893 27.4845 26.2654 24.6009C27.451 23.1621 28.4483 21.7237 29.1473 19.9923C29.8468 18.2596 30.2424 16.2462 30.2424 13.6608H29.9924ZM17.0611 35.5346L17.2761 35.4071C14.1041 30.0601 10.9291 27.115 8.59553 24.2829C7.42624 22.8639 6.46363 21.4704 5.79136 19.8051C5.11958 18.141 4.73264 16.1927 4.73264 13.6608H4.48264H4.23264C4.23264 16.2462 4.62824 18.2596 5.32772 19.9923C6.02671 21.7238 7.02409 23.1621 8.20965 24.6009C10.5857 27.4845 13.7 30.3589 16.8461 35.6622L17.0611 35.5346ZM4.48264 13.6608H4.73264C4.73264 6.93074 10.3255 1.46452 17.2375 1.46448L17.2375 1.21448L17.2375 0.964478C10.061 0.964522 4.23264 6.64312 4.23264 13.6608H4.48264ZM17.414 35.5346L17.199 35.4071C17.2096 35.3891 17.2276 35.3834 17.2375 35.3834C17.2475 35.3834 17.2654 35.3891 17.2761 35.4071L17.0611 35.5346L16.8461 35.6622C17.0211 35.9572 17.454 35.9572 17.629 35.6622L17.414 35.5346Z" fill="white"/>
<path d="M19.5382 9.78607L22.2286 8.23334L24.5274 12.2158L21.836 13.7685L24.5274 15.3232L22.2276 19.3056L19.5382 17.7519V20.8583H14.9395V17.7509L12.2481 19.3056L9.94929 15.3232L12.6397 13.7685L9.94929 12.2158L12.2481 8.23334L14.9395 9.78705V6.67963H19.5382V9.78607Z" fill="#CBCBE7"/>
</svg>
