<svg width="36" height="36" viewBox="0 0 36 36" fill="none" xmlns="http://www.w3.org/2000/svg">
<g filter="url(#filter0_d_1835_3725)">
<mask id="path-1-inside-1_1835_3725" fill="white">
<path d="M17.7549 2C24.7992 2 30.5098 7.57242 30.5098 14.4463C30.5098 23.2341 25.8945 25.2054 20.5902 32.3287C19.218 34.1714 16.2917 34.1714 14.9196 32.3287C9.61527 25.2055 5 23.234 5 14.4463C5.00001 7.57245 10.7106 2.00004 17.7549 2Z"/>
</mask>
<path d="M17.7549 2C24.7992 2 30.5098 7.57242 30.5098 14.4463C30.5098 23.2341 25.8945 25.2054 20.5902 32.3287C19.218 34.1714 16.2917 34.1714 14.9196 32.3287C9.61527 25.2055 5 23.234 5 14.4463C5.00001 7.57245 10.7106 2.00004 17.7549 2Z" fill="#EA6149"/>
<path d="M17.7549 2V1H17.7549L17.7549 2ZM30.5098 14.4463H31.5098V14.4463L30.5098 14.4463ZM5 14.4463L4 14.4463V14.4463H5ZM20.5902 32.3287L19.7881 31.7315L20.5902 32.3287ZM17.7549 2V3C24.2701 3 29.5098 8.14766 29.5098 14.4463L30.5098 14.4463L31.5098 14.4463C31.5098 6.99719 25.3282 1 17.7549 1V2ZM30.5098 14.4463H29.5098C29.5098 18.6158 28.4309 21.1007 26.7322 23.421C25.8585 24.6145 24.8217 25.7628 23.631 27.1003C22.4499 28.4269 21.1421 29.9132 19.7881 31.7315L20.5902 32.3287L21.3923 32.926C22.6905 31.1825 23.9486 29.7512 25.1248 28.4302C26.2912 27.12 27.4029 25.8906 28.346 24.6024C30.281 21.9592 31.5098 19.0646 31.5098 14.4463H30.5098ZM14.9196 32.3287L15.7216 31.7315C14.3677 29.9132 13.0598 28.4269 11.8788 27.1003C10.688 25.7628 9.6513 24.6145 8.77755 23.421C7.0789 21.1007 6 18.6157 6 14.4463H5H4C4 19.0646 5.22874 21.9592 7.16379 24.6024C8.10689 25.8906 9.21854 27.12 10.385 28.4302C11.5611 29.7512 12.8193 31.1826 14.1175 32.926L14.9196 32.3287ZM5 14.4463L6 14.4463C6.00001 8.14769 11.2397 3.00004 17.7549 3L17.7549 2L17.7549 1C10.1816 1.00005 4.00001 6.99721 4 14.4463L5 14.4463ZM20.5902 32.3287L19.7881 31.7315C18.8159 33.0372 16.6939 33.0372 15.7216 31.7315L14.9196 32.3287L14.1175 32.926C15.8895 35.3057 19.6202 35.3057 21.3923 32.926L20.5902 32.3287Z" fill="white" mask="url(#path-1-inside-1_1835_3725)"/>
<path d="M20.0555 10.5716L22.7459 9.01886L25.0448 13.0013L22.3534 14.554L25.0448 16.1087L22.745 20.0911L20.0555 18.5374V21.6439H15.4569V18.5364L12.7655 20.0911L10.4667 16.1087L13.1571 14.554L10.4667 13.0013L12.7655 9.01886L15.4569 10.5726V7.46515H20.0555V10.5716Z" fill="#FDE7E3"/>
</g>
<defs>
<filter id="filter0_d_1835_3725" x="5" y="2" width="26.5839" height="32.7849" filterUnits="userSpaceOnUse" color-interpolation-filters="sRGB">
<feFlood flood-opacity="0" result="BackgroundImageFix"/>
<feColorMatrix in="SourceAlpha" type="matrix" values="0 0 0 0 0 0 0 0 0 0 0 0 0 0 0 0 0 0 127 0" result="hardAlpha"/>
<feOffset dx="1.07412" dy="1.07412"/>
<feComposite in2="hardAlpha" operator="out"/>
<feColorMatrix type="matrix" values="0 0 0 0 0 0 0 0 0 0 0 0 0 0 0 0 0 0 0.1 0"/>
<feBlend mode="normal" in2="BackgroundImageFix" result="effect1_dropShadow_1835_3725"/>
<feBlend mode="normal" in="SourceGraphic" in2="effect1_dropShadow_1835_3725" result="shape"/>
</filter>
</defs>
</svg>
