<svg width="307" height="204" viewBox="0 0 307 204" fill="none" xmlns="http://www.w3.org/2000/svg">
<rect width="307" height="204" fill="#EEEAEC"/>
<path d="M159.809 81.6172L167.215 77.2998L173.5 88.292L166.07 92.6221L173.5 96.9541L167.215 107.946L159.809 103.628V112.245H147.191V103.629L139.786 107.946L133.501 96.9541L140.93 92.6221L133.501 88.292L139.786 77.2998L147.191 81.6162V73H159.809V81.6172Z" fill="#E3DDE0"/>
<path d="M161.04 117.519C160.282 118.868 159.244 119.923 157.929 120.688C156.612 121.452 155.153 121.833 153.547 121.833C151.941 121.833 150.415 121.452 149.097 120.688C147.78 119.923 146.745 118.868 145.986 117.519C145.228 116.169 144.85 114.665 144.85 113.003H135.152C135.152 116.373 135.953 119.431 137.559 122.17C139.165 124.912 141.374 127.069 144.184 128.642C146.993 130.214 150.114 131 153.55 131C156.987 131 160.107 130.214 162.917 128.642C165.727 127.069 167.922 124.912 169.507 122.17C171.089 119.428 171.881 116.373 171.881 113.003H162.18C162.18 114.665 161.799 116.172 161.043 117.519H161.04Z" fill="#E3DDE0"/>
</svg>
