<svg width="375" height="202" viewBox="0 0 375 202" fill="none" xmlns="http://www.w3.org/2000/svg">
<g clip-path="url(#clip0_1006_7311)">
<path d="M335.33 0C343.697 0 351.46 4.35692 355.818 11.499L440.035 149.522C449.794 165.515 438.283 186.023 419.548 186.023H-44.1765C-62.9111 186.023 -74.4218 165.515 -64.6638 149.522L19.5539 11.499C23.9118 4.35704 31.6748 0.00014648 40.0413 0H335.33Z" fill="#B4B2DB"/>
<path d="M-78.1533 187.435L26.2909 15.5768C27.3412 13.8485 30 14.593 30 16.6155V188.474C30 189.578 29.1046 190.474 28 190.474H-76.4442C-78.0038 190.474 -78.9633 188.768 -78.1533 187.435Z" fill="#9796C7"/>
<path d="M454.153 187.435L349.709 15.5768C348.659 13.8485 346 14.593 346 16.6155V188.474C346 189.578 346.895 190.474 348 190.474H452.444C454.004 190.474 454.963 188.768 454.153 187.435Z" fill="#9796C7"/>
<path d="M384.227 197.947C384.227 204.575 378.854 209.947 372.227 209.947H4.00001C-2.62741 209.947 -8 204.575 -8 197.947V116.64C-8 110.012 -2.62742 104.64 4 104.64H127.032C133.647 104.64 138.871 110.065 140.38 116.506C145.554 138.6 164.687 155 187.5 155C210.313 155 229.446 138.6 234.62 116.506C236.129 110.065 241.353 104.64 247.968 104.64H372.227C378.854 104.64 384.227 110.012 384.227 116.64V197.947Z" fill="#E8E8FF"/>
</g>
<defs>
<clipPath id="clip0_1006_7311">
<rect width="375" height="202" fill="white"/>
</clipPath>
</defs>
</svg>
