<svg width="36" height="36" viewBox="0 0 36 36" fill="none" xmlns="http://www.w3.org/2000/svg">
<path d="M18.0781 0.516602C25.2145 0.516665 31 6.16226 31 13.126C30.9998 22.5972 25.7068 24.2532 19.9121 32.6934C19.045 33.9553 17.11 33.9556 16.2432 32.6934C10.4485 24.2532 5.15646 22.5972 5.15625 13.126C5.15625 6.16222 10.9417 0.516602 18.0781 0.516602ZM15.5801 8.9082L12.6572 7.2207L10.1582 11.5479L13.0801 13.2344L10.1582 14.9229L12.6572 19.251L15.5801 17.5625V20.9385H20.5771V17.5625L23.501 19.251L25.999 14.9238L23.0742 13.2354L25.999 11.5479L23.501 7.21973L20.5771 8.90723V5.53223H15.5801V8.9082Z" fill="#FAFBEC"/>
</svg>
