<svg width="164" height="164" viewBox="0 0 164 164" fill="none" xmlns="http://www.w3.org/2000/svg">
<rect width="164" height="164" fill="#242424" fill-opacity="0.4"/>
<path d="M89.8854 56.426L99.1198 51.0842L107 64.76L97.7584 70.1047L107 75.4514L99.1198 89.1262L89.8854 83.7834V94.4651H74.1139V83.7844L64.8795 89.1272L56.9996 75.4514L66.2399 70.1047L56.9996 64.759L64.8795 51.0842L74.1139 56.426V45.7463H89.8854V56.426Z" fill="white" fill-opacity="0.4"/>
<path d="M91.4248 101.011C90.4767 102.686 89.1792 103.996 87.5362 104.945C85.8893 105.894 84.0659 106.366 82.0583 106.366C80.0506 106.366 78.1428 105.894 76.4959 104.945C74.8491 103.996 73.5555 102.686 72.6073 101.011C71.6591 99.3356 71.1869 97.4684 71.1869 95.4053H59.0642C59.0642 99.5892 60.0661 103.385 62.0738 106.785C64.0814 110.189 66.8415 112.867 70.3539 114.819C73.8664 116.77 77.7666 117.746 82.0621 117.746C86.3577 117.746 90.2578 116.77 93.7703 114.819C97.2828 112.867 100.027 110.189 102.008 106.785C103.985 103.381 104.976 99.5892 104.976 95.4053H92.849C92.849 97.4684 92.373 99.3395 91.4287 101.011H91.4248Z" fill="white" fill-opacity="0.4"/>
</svg>
