<svg width="44" height="44" viewBox="0 0 44 44" fill="none" xmlns="http://www.w3.org/2000/svg">
<path d="M10.9933 28.5533C10.6871 28.8597 10.6873 29.3562 10.9936 29.6624L14.3395 33.0068C14.6458 33.313 15.1423 33.3129 15.4485 33.0067L17.5118 30.9435C18.0058 30.4494 18.8506 30.7993 18.8506 31.498V34.4157C18.8506 34.8489 19.2017 35.2 19.6349 35.2H24.3673C24.8004 35.2 25.1516 34.8489 25.1516 34.4157V31.498C25.1516 30.7993 25.9964 30.4494 26.4904 30.9435L28.5535 33.0065C28.8598 33.3128 29.3563 33.3128 29.6626 33.0065L33.0068 29.6624C33.313 29.3562 33.313 28.8597 33.0069 28.5534L30.9427 26.4881C30.4488 25.994 30.7988 25.1494 31.4974 25.1494H34.4158C34.8489 25.1494 35.2001 24.7983 35.2001 24.3652V19.6348C35.2001 19.2017 34.8489 18.8505 34.4158 18.8505H31.4981C30.7994 18.8505 30.4495 18.0058 30.9435 17.5117L33.0067 15.4485C33.313 15.1423 33.313 14.6458 33.0069 14.3395L29.6626 10.9937C29.3564 10.6873 28.8597 10.6872 28.5534 10.9936L26.4904 13.0565C25.9964 13.5506 25.1516 13.2007 25.1516 12.5019V9.58426C25.1516 9.15112 24.8004 8.79999 24.3673 8.79999H19.6349C19.2017 8.79999 18.8506 9.15112 18.8506 9.58426V12.5019C18.8506 13.2007 18.0058 13.5506 17.5118 13.0565L15.4487 10.9934C15.1424 10.6872 14.6458 10.6872 14.3395 10.9934L10.9935 14.3395C10.6872 14.6458 10.6872 15.1423 10.9935 15.4486L13.0566 17.5117C13.5506 18.0058 13.2007 18.8505 12.502 18.8505H9.58432C9.15118 18.8505 8.80005 19.2017 8.80005 19.6348V24.3652C8.80005 24.7983 9.15118 25.1494 9.58432 25.1494H12.5027C13.2013 25.1494 13.5513 25.994 13.0574 26.4881L10.9933 28.5533Z" fill="#E46A61"/>
<path d="M21.9941 26.1172C20.3886 26.1172 19.1816 25.1387 19.123 23.7852H20.3769C20.4472 24.5059 21.1386 25.0332 21.9941 25.0391C23.0254 25.0332 23.7636 24.2891 23.7636 23.2812C23.7636 22.25 23.0019 21.5 21.9355 21.4883C21.2558 21.4883 20.7344 21.7168 20.4472 22.2383H19.2285L19.7793 17.5156H24.584V18.6172H20.8457L20.5644 20.9961H20.6465C20.998 20.6562 21.5957 20.4277 22.2402 20.4219C23.8398 20.4277 25.0176 21.6113 25.0176 23.2461C25.0176 24.916 23.7636 26.1172 21.9941 26.1172Z" fill="white"/>
</svg>
