<svg width="24" height="24" viewBox="0 0 24 24" fill="none" xmlns="http://www.w3.org/2000/svg">
<path d="M12 4.50134C15.3136 4.50134 17.9998 7.12247 18 10.3558C18 14.8328 14.5802 17.7632 12.9043 18.9301C12.3549 19.3126 11.6451 19.3126 11.0957 18.9301C9.4198 17.7632 6 14.8328 6 10.3558C6.00021 7.12247 8.68642 4.50134 12 4.50134ZM12 8.25134C10.7574 8.25134 9.75002 9.25872 9.75 10.5013C9.75 11.744 10.7574 12.7513 12 12.7513C13.2426 12.7513 14.25 11.744 14.25 10.5013C14.25 9.25872 13.2426 8.25134 12 8.25134Z" fill="#242424"/>
</svg>
