<svg width="140" height="140" viewBox="0 0 140 140" fill="none" xmlns="http://www.w3.org/2000/svg">
<rect width="140" height="140" fill="#EEEAEC"/>
<path d="M76.3086 49.6172L83.7148 45.2998L90 56.292L82.5703 60.6221L90 64.9541L83.7148 75.9463L76.3086 71.6279V80.2451H63.6914V71.6289L56.2861 75.9463L50.001 64.9541L57.4297 60.6221L50.001 56.292L56.2861 45.2998L63.6914 49.6162V41H76.3086V49.6172Z" fill="#E3DDE0"/>
<path d="M77.5403 85.5185C76.7818 86.8679 75.7438 87.9233 74.4294 88.6877C73.1119 89.4522 71.6532 89.8329 70.0471 89.8329C68.4409 89.8329 66.9146 89.4522 65.5971 88.6877C64.2797 87.9233 63.2447 86.8679 62.4862 85.5185C61.7277 84.1692 61.3499 82.665 61.3499 81.0031H51.6517C51.6517 84.3734 52.4532 87.4312 54.0593 90.1702C55.6655 92.9123 57.8735 95.0695 60.6835 96.6417C63.4935 98.2139 66.6137 99 70.0501 99C73.4866 99 76.6067 98.2139 79.4167 96.6417C82.2267 95.0695 84.4225 92.9123 86.0071 90.1702C87.5887 87.4281 88.381 84.3734 88.381 81.0031H78.6797C78.6797 82.665 78.2989 84.1723 77.5434 85.5185H77.5403Z" fill="#E3DDE0"/>
</svg>
