<svg width="36" height="36" viewBox="0 0 36 36" fill="none" xmlns="http://www.w3.org/2000/svg">
<g filter="url(#filter0_d_5013_4485)">
<mask id="path-1-outside-1_5013_4485" maskUnits="userSpaceOnUse" x="3" y="3.35645" width="30" height="29" fill="black">
<rect fill="white" x="3" y="3.35645" width="30" height="29"/>
<path d="M22.1016 10.8965L26.8994 8.12695L31 15.2295L26.2002 17.999L31 20.7705L26.8994 27.873L22.1016 25.1025V30.6436H13.8994V25.1016L9.10059 27.8721L5 20.7705L9.79785 17.999L5 15.2295L9.10059 8.12695L13.8994 10.8975V5.35645H22.1016V10.8965Z"/>
</mask>
<path d="M22.1016 10.8965L26.8994 8.12695L31 15.2295L26.2002 17.999L31 20.7705L26.8994 27.873L22.1016 25.1025V30.6436H13.8994V25.1016L9.10059 27.8721L5 20.7705L9.79785 17.999L5 15.2295L9.10059 8.12695L13.8994 10.8975V5.35645H22.1016V10.8965Z" fill="#EA867B"/>
<path d="M22.1016 10.8965H20.7589V13.2218L22.7728 12.0593L22.1016 10.8965ZM26.8994 8.12695L28.0622 7.45564L27.3909 6.29295L26.2282 6.96413L26.8994 8.12695ZM31 15.2295L31.671 16.3924L32.8343 15.7212L32.1628 14.5582L31 15.2295ZM26.2002 17.999L25.5292 16.8361L23.5144 17.9986L25.5288 19.1618L26.2002 17.999ZM31 20.7705L32.1628 21.4418L32.834 20.2791L31.6714 19.6078L31 20.7705ZM26.8994 27.873L26.228 29.0358L27.3908 29.7072L28.0622 28.5444L26.8994 27.873ZM22.1016 25.1025L22.773 23.9398L20.7589 22.7768V25.1025H22.1016ZM22.1016 30.6436V31.9862H23.4442V30.6436H22.1016ZM13.8994 30.6436H12.5568V31.9862H13.8994V30.6436ZM13.8994 25.1016H15.2421V22.7761L13.2281 23.9388L13.8994 25.1016ZM9.10059 27.8721L7.93785 28.5435L8.60919 29.7061L9.77189 29.0348L9.10059 27.8721ZM5 20.7705L4.32841 19.6079L3.166 20.2794L3.83727 21.4419L5 20.7705ZM9.79785 17.999L10.4694 19.1616L12.4828 17.9986L10.4691 16.8362L9.79785 17.999ZM5 15.2295L3.83723 14.5582L3.16586 15.721L4.32877 16.3923L5 15.2295ZM9.10059 8.12695L9.77189 6.96418L8.60912 6.29288L7.93781 7.45564L9.10059 8.12695ZM13.8994 10.8975L13.2281 12.0602L15.2421 13.223V10.8975H13.8994ZM13.8994 5.35645V4.0138H12.5568V5.35645H13.8994ZM22.1016 5.35645H23.4442V4.0138H22.1016V5.35645ZM22.1016 10.8965L22.7728 12.0593L27.5706 9.28977L26.8994 8.12695L26.2282 6.96413L21.4303 9.73366L22.1016 10.8965ZM26.8994 8.12695L25.7366 8.79827L29.8372 15.9008L31 15.2295L32.1628 14.5582L28.0622 7.45564L26.8994 8.12695ZM31 15.2295L30.329 14.0666L25.5292 16.8361L26.2002 17.999L26.8712 19.162L31.671 16.3924L31 15.2295ZM26.2002 17.999L25.5288 19.1618L30.3286 21.9332L31 20.7705L31.6714 19.6078L26.8716 16.8363L26.2002 17.999ZM31 20.7705L29.8372 20.0992L25.7366 27.2017L26.8994 27.873L28.0622 28.5444L32.1628 21.4418L31 20.7705ZM26.8994 27.873L27.5708 26.7103L22.773 23.9398L22.1016 25.1025L21.4302 26.2653L26.228 29.0358L26.8994 27.873ZM22.1016 25.1025H20.7589V30.6436H22.1016H23.4442V25.1025H22.1016ZM22.1016 30.6436V29.3009H13.8994V30.6436V31.9862H22.1016V30.6436ZM13.8994 30.6436H15.2421V25.1016H13.8994H12.5568V30.6436H13.8994ZM13.8994 25.1016L13.2281 23.9388L8.42928 26.7093L9.10059 27.8721L9.77189 29.0348L14.5707 26.2643L13.8994 25.1016ZM9.10059 27.8721L10.2633 27.2007L6.16273 20.0991L5 20.7705L3.83727 21.4419L7.93785 28.5435L9.10059 27.8721ZM5 20.7705L5.67159 21.9331L10.4694 19.1616L9.79785 17.999L9.12627 16.8364L4.32841 19.6079L5 20.7705ZM9.79785 17.999L10.4691 16.8362L5.67123 14.0667L5 15.2295L4.32877 16.3923L9.12662 19.1618L9.79785 17.999ZM5 15.2295L6.16277 15.9008L10.2634 8.79827L9.10059 8.12695L7.93781 7.45564L3.83723 14.5582L5 15.2295ZM9.10059 8.12695L8.42928 9.28973L13.2281 12.0602L13.8994 10.8975L14.5707 9.73468L9.77189 6.96418L9.10059 8.12695ZM13.8994 10.8975H15.2421V5.35645H13.8994H12.5568V10.8975H13.8994ZM13.8994 5.35645V6.69909H22.1016V5.35645V4.0138H13.8994V5.35645ZM22.1016 5.35645H20.7589V10.8965H22.1016H23.4442V5.35645H22.1016Z" fill="white" mask="url(#path-1-outside-1_5013_4485)"/>
</g>
<path d="M15.6288 15.3953L18.2862 13.3285V22.6292" stroke="#FFF2EB" stroke-width="2" stroke-linejoin="bevel"/>
<defs>
<filter id="filter0_d_5013_4485" x="3.16586" y="4.01379" width="30.7425" height="29.0465" filterUnits="userSpaceOnUse" color-interpolation-filters="sRGB">
<feFlood flood-opacity="0" result="BackgroundImageFix"/>
<feColorMatrix in="SourceAlpha" type="matrix" values="0 0 0 0 0 0 0 0 0 0 0 0 0 0 0 0 0 0 127 0" result="hardAlpha"/>
<feOffset dx="1.07412" dy="1.07412"/>
<feComposite in2="hardAlpha" operator="out"/>
<feColorMatrix type="matrix" values="0 0 0 0 0 0 0 0 0 0 0 0 0 0 0 0 0 0 0.1 0"/>
<feBlend mode="normal" in2="BackgroundImageFix" result="effect1_dropShadow_5013_4485"/>
<feBlend mode="normal" in="SourceGraphic" in2="effect1_dropShadow_5013_4485" result="shape"/>
</filter>
</defs>
</svg>
