<svg width="24" height="24" viewBox="0 0 24 24" fill="none" xmlns="http://www.w3.org/2000/svg">
<circle cx="12" cy="12" r="12" fill="#F6F6FF"/>
<path d="M6.04737 15.5234C5.85216 15.7188 5.85224 16.0353 6.04755 16.2305L7.77047 17.9527C7.96574 18.1479 8.28226 18.1478 8.47749 17.9526L9.42855 17.0015C9.74353 16.6865 10.2821 16.9096 10.2821 17.3551V18.7C10.2821 18.9761 10.506 19.2 10.7821 19.2H13.219C13.4951 19.2 13.719 18.9761 13.719 18.7V17.3551C13.719 16.9096 14.2576 16.6865 14.5726 17.0015L15.5235 17.9525C15.7188 18.1478 16.0354 18.1478 16.2306 17.9525L17.9526 16.2305C18.1478 16.0353 18.1479 15.7188 17.9527 15.5235L17.001 14.5713C16.6861 14.2563 16.9092 13.7179 17.3546 13.7179H18.7C18.9761 13.7179 19.2 13.494 19.2 13.2179V10.7821C19.2 10.506 18.9761 10.2821 18.7 10.2821H17.3551C16.9096 10.2821 16.6865 9.74353 17.0015 9.42855L17.9526 8.47749C18.1478 8.28226 18.1479 7.96574 17.9527 7.77047L16.2306 6.04764C16.0354 5.8523 15.7187 5.85226 15.5234 6.04756L14.5726 6.99845C14.2576 7.31343 13.719 7.09035 13.719 6.6449V5.29999C13.719 5.02384 13.4951 4.79999 13.219 4.79999H10.7821C10.506 4.79999 10.2821 5.02385 10.2821 5.29999V6.6449C10.2821 7.09035 9.74353 7.31343 9.42855 6.99845L8.47757 6.04747C8.28231 5.85221 7.96573 5.85221 7.77047 6.04747L6.04747 7.77047C5.85221 7.96573 5.85221 8.28231 6.04747 8.47757L6.99845 9.42855C7.31343 9.74353 7.09035 10.2821 6.6449 10.2821H5.29999C5.02384 10.2821 4.79999 10.506 4.79999 10.7821V13.2179C4.79999 13.494 5.02385 13.7179 5.29999 13.7179H6.64534C7.09073 13.7179 7.31384 14.2563 6.99899 14.5713L6.04737 15.5234Z" fill="#CBCBE7"/>
</svg>
