<svg width="24" height="24" viewBox="0 0 24 24" fill="none" xmlns="http://www.w3.org/2000/svg">
<mask id="path-1-outside-1_490_7898" maskUnits="userSpaceOnUse" x="4.01239" y="3.83417" width="16" height="16" fill="black">
<rect fill="white" x="4.01239" y="3.83417" width="16" height="16"/>
<path d="M11.0402 6.46239C11.3756 5.62473 12.5612 5.62478 12.8966 6.46239L13.7512 8.5988C14.0561 9.36106 14.66 9.96506 15.4223 10.27L17.3458 11.0395C18.184 11.3748 18.1839 12.5617 17.3458 12.897L15.277 13.7242C14.5146 14.0291 13.9105 14.6331 13.6055 15.3955L12.8966 17.1675C12.5613 18.0054 11.3755 18.0054 11.0402 17.1675L10.3215 15.3716C10.0165 14.6095 9.41254 14.0057 8.6504 13.7008L6.64075 12.897C5.80298 12.5616 5.80289 11.3749 6.64075 11.0395L8.50513 10.2934C9.26713 9.98849 9.87092 9.38466 10.1758 8.62264L11.0402 6.46239Z"/>
</mask>
<path d="M11.0402 6.46239L9.64764 5.90484L9.6475 5.90517L11.0402 6.46239ZM12.8966 6.46239L14.2893 5.90531L14.2891 5.90474L12.8966 6.46239ZM17.3458 11.0395L16.7887 12.4322L16.7887 12.4323L17.3458 11.0395ZM17.3458 12.897L17.9028 14.2897L17.903 14.2897L17.3458 12.897ZM12.8966 17.1675L14.2892 17.7248L14.2893 17.7246L12.8966 17.1675ZM11.0402 17.1675L12.4328 16.6102L12.4328 16.6102L11.0402 17.1675ZM6.64075 12.897L6.08324 14.2895L6.08366 14.2897L6.64075 12.897ZM6.64075 11.0395L6.08343 9.64692L6.08342 9.64693L6.64075 11.0395ZM8.50513 10.2934L9.06244 11.6861L8.50513 10.2934ZM8.6504 13.7008L9.20748 12.3081L8.6504 13.7008ZM15.277 13.7242L15.834 15.117L15.277 13.7242ZM13.6055 15.3955L14.9982 15.9526L13.6055 15.3955ZM13.7512 8.5988L12.3585 9.15589L13.7512 8.5988ZM11.0402 6.46239L12.4327 7.01995C12.2649 7.43909 11.6718 7.43869 11.5041 7.02005L12.8966 6.46239L14.2891 5.90474C13.4506 3.81088 10.4862 3.81037 9.64764 5.90484L11.0402 6.46239ZM12.8966 6.46239L11.5039 7.01948L12.3585 9.15589L13.7512 8.5988L15.1439 8.04172L14.2893 5.90531L12.8966 6.46239ZM15.4223 10.27L14.8651 11.6627L16.7887 12.4322L17.3458 11.0395L17.903 9.64686L15.9794 8.87732L15.4223 10.27ZM17.3458 11.0395L16.7887 12.4323C16.3696 12.2646 16.3697 11.6719 16.7887 11.5043L17.3458 12.897L17.903 14.2897C19.9982 13.4515 19.9983 10.485 17.9029 9.64683L17.3458 11.0395ZM17.3458 12.897L16.7889 11.5042L14.7201 12.3315L15.277 13.7242L15.834 15.117L17.9028 14.2897L17.3458 12.897ZM13.6055 15.3955L12.2128 14.8383L11.5039 16.6103L12.8966 17.1675L14.2893 17.7246L14.9982 15.9526L13.6055 15.3955ZM12.8966 17.1675L11.504 16.6101C11.6716 16.1914 12.2651 16.191 12.4328 16.6102L11.0402 17.1675L9.64752 17.7247C10.4859 19.8199 13.4509 19.8194 14.2892 17.7248L12.8966 17.1675ZM11.0402 17.1675L12.4328 16.6102L11.7141 14.8143L10.3215 15.3716L8.92885 15.9289L9.64754 17.7248L11.0402 17.1675ZM8.6504 13.7008L9.20748 12.3081L7.19784 11.5042L6.64075 12.897L6.08366 14.2897L8.09331 15.0935L8.6504 13.7008ZM6.64075 12.897L7.19826 11.5044C7.61677 11.672 7.61749 12.2643 7.19808 12.4322L6.64075 11.0395L6.08342 9.64693C3.98829 10.4854 3.9892 13.4511 6.08324 14.2895L6.64075 12.897ZM6.64075 11.0395L7.19807 12.4322L9.06244 11.6861L8.50513 10.2934L7.94781 8.90081L6.08343 9.64692L6.64075 11.0395ZM10.1758 8.62264L11.5685 9.17987L12.4328 7.01962L11.0402 6.46239L9.6475 5.90517L8.78315 8.06541L10.1758 8.62264ZM8.50513 10.2934L9.06244 11.6861C10.2054 11.2286 11.1111 10.3229 11.5685 9.17987L10.1758 8.62264L8.78315 8.06541C8.63071 8.44642 8.32881 8.74834 7.94781 8.90081L8.50513 10.2934ZM10.3215 15.3716L11.7141 14.8143C11.2566 13.6711 10.3507 12.7654 9.20748 12.3081L8.6504 13.7008L8.09331 15.0935C8.47438 15.246 8.77635 15.5479 8.92885 15.9289L10.3215 15.3716ZM15.277 13.7242L14.7201 12.3315C13.5765 12.7888 12.6703 13.6948 12.2128 14.8383L13.6055 15.3955L14.9982 15.9526C15.1507 15.5715 15.4528 15.2694 15.834 15.117L15.277 13.7242ZM13.7512 8.5988L12.3585 9.15589C12.8158 10.2993 13.7218 11.2053 14.8651 11.6627L15.4223 10.27L15.9794 8.87732C15.5983 8.72485 15.2963 8.42285 15.1439 8.04172L13.7512 8.5988Z" fill="#242424" mask="url(#path-1-outside-1_490_7898)"/>
</svg>
