<svg width="24" height="23" viewBox="0 0 24 23" fill="none" xmlns="http://www.w3.org/2000/svg">
<path d="M2.44472 17.1623C2.18956 17.4176 2.18966 17.8314 2.44495 18.0865L5.35877 20.999C5.61402 21.2541 6.02775 21.2541 6.28294 20.9989L8.11377 19.1681C8.52549 18.7563 9.22946 19.0479 9.22946 19.6302V22.2193C9.22946 22.5802 9.52207 22.8728 9.88303 22.8728H14.0043C14.3652 22.8728 14.6578 22.5802 14.6578 22.2193V19.6302C14.6578 19.0479 15.3618 18.7563 15.7735 19.1681L17.6043 20.9988C17.8595 21.254 18.2733 21.254 18.5285 20.9988L21.4408 18.0865C21.696 17.8313 21.696 17.4176 21.4409 17.1624L19.6092 15.3297C19.1977 14.918 19.4893 14.2142 20.0715 14.2142H22.6612C23.0221 14.2142 23.3147 13.9216 23.3147 13.5606V9.44113C23.3147 9.08018 23.0221 8.78757 22.6612 8.78757H20.0721C19.4898 8.78757 19.1982 8.08359 19.61 7.67187L21.4408 5.84104C21.696 5.58585 21.696 5.17212 21.4409 4.91687L18.5285 2.00317C18.2733 1.74784 17.8594 1.74779 17.6042 2.00306L15.7735 3.83368C15.3618 4.2454 14.6578 3.9538 14.6578 3.37154V0.782468C14.6578 0.421517 14.3652 0.128906 14.0043 0.128906H9.88303C9.52207 0.128906 9.22946 0.421515 9.22946 0.782467V3.37154C9.22946 3.9538 8.52549 4.2454 8.11377 3.83368L6.28304 2.00296C6.02781 1.74772 5.614 1.74773 5.35877 2.00296L2.44485 4.91687C2.18962 5.17211 2.18962 5.58592 2.44485 5.84115L4.27557 7.67187C4.68729 8.08359 4.3957 8.78757 3.81344 8.78757H1.22436C0.863411 8.78757 0.570801 9.08018 0.570801 9.44113V13.5606C0.570801 13.9216 0.86341 14.2142 1.22436 14.2142H3.81402C4.3962 14.2142 4.68783 14.918 4.27628 15.3297L2.44472 17.1623Z" fill="#D1CACD"/>
</svg>
