<svg width="215" height="87" viewBox="0 0 215 87" fill="none" xmlns="http://www.w3.org/2000/svg">
<path d="M19.8797 69.4656C16.5305 69.4656 13.4923 68.7718 10.7652 67.3843C8.08583 65.9968 5.95672 64.083 4.37783 61.6429C2.84679 59.2028 2.08126 56.4995 2.08126 53.5331H14.5688C14.5688 54.4422 14.8081 55.3034 15.2865 56.1168C15.765 56.8823 16.4109 57.4804 17.2243 57.911C18.0855 58.3416 19.0424 58.5569 20.095 58.5569C21.0519 58.5569 21.9131 58.3894 22.6786 58.0545C23.4441 57.6718 24.0422 57.1933 24.4728 56.6192C24.9034 55.9972 25.1187 55.3273 25.1187 54.6097C25.1187 53.2222 24.401 52.1217 22.9657 51.3083C21.5782 50.4471 19.5447 49.6577 16.8654 48.94C12.7986 47.8874 9.4255 46.1171 6.74617 43.6292C4.06684 41.1413 2.72717 37.6725 2.72717 33.2229C2.72717 30.4 3.46877 27.8642 4.95197 25.6155C6.43517 23.3189 8.46859 21.5247 11.0522 20.2329C13.6359 18.8933 16.5544 18.2234 19.8079 18.2234C23.0135 18.2234 25.9082 18.8933 28.4918 20.2329C31.1233 21.5726 33.1806 23.4146 34.6638 25.759C36.1949 28.0556 36.9604 30.6392 36.9604 33.5099H24.4728C24.4728 32.6966 24.2575 31.955 23.8269 31.2851C23.4441 30.6153 22.87 30.089 22.1045 29.7063C21.3868 29.3235 20.5973 29.1321 19.7361 29.1321C18.8749 29.1321 18.1094 29.2996 17.4396 29.6345C16.7697 29.9216 16.2434 30.3522 15.8607 30.9263C15.4779 31.4526 15.2865 32.0507 15.2865 32.7205C15.2865 34.0602 15.9085 35.1367 17.1525 35.9501C18.4443 36.7634 20.3581 37.505 22.8939 38.1749C27.3914 39.4188 30.9797 41.213 33.6591 43.5574C36.3384 45.854 37.6781 49.2749 37.6781 53.8202C37.6781 56.7866 36.8886 59.4659 35.3097 61.8582C33.7787 64.2026 31.6496 66.0686 28.9224 67.4561C26.2431 68.7958 23.2288 69.4656 19.8797 69.4656ZM61.5509 69.4656C57.819 69.4656 54.4459 68.6283 51.4317 66.9537C48.4174 65.2791 46.0491 62.9826 44.3267 60.064C42.6042 57.1455 41.743 53.892 41.743 50.3036C41.743 46.7152 42.6042 43.4617 44.3267 40.5432C46.0491 37.6246 48.4174 35.3281 51.4317 33.6535C54.4459 31.9789 57.819 31.1416 61.5509 31.1416C65.2828 31.1416 68.6559 31.9789 71.6702 33.6535C74.6844 35.3281 77.0528 37.6246 78.7752 40.5432C80.4976 43.4617 81.3588 46.7152 81.3588 50.3036C81.3588 53.892 80.4976 57.1455 78.7752 60.064C77.0528 62.9826 74.6844 65.2791 71.6702 66.9537C68.6559 68.6283 65.2828 69.4656 61.5509 69.4656ZM61.5509 58.3416C63.0341 58.3416 64.3738 58.0067 65.5699 57.3368C66.8139 56.6192 67.7708 55.6383 68.4406 54.3944C69.1583 53.1504 69.5171 51.7868 69.5171 50.3036C69.5171 48.8204 69.1583 47.4568 68.4406 46.2128C67.7708 44.9689 66.8139 44.012 65.5699 43.3421C64.3738 42.6245 63.0341 42.2656 61.5509 42.2656C60.0677 42.2656 58.7041 42.6245 57.4602 43.3421C56.264 44.012 55.3071 44.9689 54.5895 46.2128C53.9196 47.4568 53.5847 48.8204 53.5847 50.3036C53.5847 51.7868 53.9196 53.1504 54.5895 54.3944C55.3071 55.6383 56.264 56.6192 57.4602 57.3368C58.7041 58.0067 60.0677 58.3416 61.5509 58.3416ZM87.0688 16.9316H98.5517V63.2936L93.3844 58.1263H104.221V68.6044H87.0688V16.9316ZM130.751 69.4656C127.689 69.4656 124.962 68.6522 122.57 67.0255C120.225 65.3509 118.407 63.0543 117.115 60.1358C115.824 57.2172 115.178 53.9398 115.178 50.3036C115.178 46.6674 115.824 43.39 117.115 40.4714C118.407 37.5529 120.225 35.2802 122.57 33.6535C124.962 31.9789 127.689 31.1416 130.751 31.1416C134.053 31.1416 137.019 31.9789 139.65 33.6535C142.33 35.3281 144.435 37.6246 145.966 40.5432C147.497 43.4617 148.263 46.7152 148.263 50.3036C148.263 53.892 147.497 57.1455 145.966 60.064C144.435 62.9826 142.33 65.2791 139.65 66.9537C137.019 68.6283 134.053 69.4656 130.751 69.4656ZM109.006 32.0028H120.488V82.2402H109.006V32.0028ZM128.455 58.3416C129.938 58.3416 131.278 58.0067 132.474 57.3368C133.718 56.6192 134.675 55.6383 135.344 54.3944C136.062 53.1504 136.421 51.7868 136.421 50.3036C136.421 48.8204 136.062 47.4568 135.344 46.2128C134.675 44.9689 133.718 44.012 132.474 43.3421C131.278 42.6245 129.938 42.2656 128.455 42.2656C126.972 42.2656 125.608 42.6245 124.364 43.3421C123.168 44.012 122.211 44.9689 121.493 46.2128C120.823 47.4568 120.488 48.8204 120.488 50.3036C120.488 51.7868 120.823 53.1504 121.493 54.3944C122.211 55.6383 123.168 56.6192 124.364 57.3368C125.608 58.0067 126.972 58.3416 128.455 58.3416ZM154.211 16.9316H165.694V63.2936L160.526 58.1263H171.363V68.6044H154.211V16.9316ZM177.032 71.7622H186.865L182.774 74.7046L186.219 66.3078V69.8244L171.148 32.0028H184.281L193.611 58.9157H190.022L199.28 32.0028H212.199L192.104 82.2402H177.032V71.7622Z" fill="#B4B2DB"/>
</svg>
