<svg width="206" height="86" viewBox="0 0 206 86" fill="none" xmlns="http://www.w3.org/2000/svg">
<path d="M16.5066 68.8612C13.7316 68.8612 11.2197 68.311 8.97097 67.2106C6.72224 66.1101 4.95197 64.6269 3.66015 62.761C2.41618 60.895 1.79419 58.8616 1.79419 56.6607H13.2053C13.2053 57.5698 13.5163 58.3592 14.1382 59.029C14.8081 59.651 15.6454 59.962 16.6501 59.962C17.5113 59.962 18.229 59.7467 18.8031 59.3161C19.4251 58.8377 19.7361 58.2635 19.7361 57.5937C19.7361 56.6846 19.2338 55.9669 18.229 55.4406C17.2243 54.9143 15.8367 54.4359 14.0665 54.0053C10.7173 53.2876 7.91837 52.0436 5.66965 50.2734C3.42093 48.4553 2.29657 45.7998 2.29657 42.3072C2.29657 39.8192 2.91855 37.6901 4.16253 35.9198C5.45435 34.1496 7.17677 32.8099 9.32981 31.9008C11.4828 30.9918 13.8273 30.5372 16.363 30.5372C19.0902 30.5372 21.5303 31.0635 23.6834 32.1161C25.8364 33.1209 27.5349 34.5323 28.7789 36.3504C30.0707 38.1207 30.7166 40.0584 30.7166 42.1636H19.2338C19.2338 41.3981 18.9467 40.7522 18.3725 40.2259C17.8462 39.6996 17.1525 39.4364 16.2913 39.4364C15.5736 39.4364 14.9516 39.6517 14.4253 40.0824C13.9469 40.4651 13.7076 40.9436 13.7076 41.5177C13.7076 42.3789 14.21 43.0966 15.2148 43.6707C16.2195 44.2449 17.6788 44.7473 19.5926 45.1779C23.0374 45.9434 25.8364 47.1874 27.9894 48.9098C30.1424 50.5844 31.219 53.1441 31.219 56.5889C31.219 59.1247 30.5491 61.3256 29.2095 63.1916C27.9176 65.0097 26.1474 66.4211 23.8987 67.4259C21.6978 68.3828 19.2338 68.8612 16.5066 68.8612ZM54.5424 68.8612C50.8104 68.8612 47.4373 68.0239 44.4231 66.3493C41.4089 64.6748 39.0405 62.3782 37.3181 59.4596C35.5957 56.5411 34.7345 53.2876 34.7345 49.6992C34.7345 46.1108 35.5957 42.8574 37.3181 39.9388C39.0405 37.0203 41.4089 34.7237 44.4231 33.0491C47.4373 31.3745 50.8104 30.5372 54.5424 30.5372C58.2743 30.5372 61.6474 31.3745 64.6616 33.0491C67.6758 34.7237 70.0442 37.0203 71.7666 39.9388C73.489 42.8574 74.3502 46.1108 74.3502 49.6992C74.3502 53.2876 73.489 56.5411 71.7666 59.4596C70.0442 62.3782 67.6758 64.6748 64.6616 66.3493C61.6474 68.0239 58.2743 68.8612 54.5424 68.8612ZM54.5424 57.7372C56.0256 57.7372 57.3652 57.4023 58.5613 56.7325C59.8053 56.0148 60.7622 55.034 61.4321 53.79C62.1497 52.546 62.5086 51.1824 62.5086 49.6992C62.5086 48.216 62.1497 46.8524 61.4321 45.6085C60.7622 44.3645 59.8053 43.4076 58.5613 42.7378C57.3652 42.0201 56.0256 41.6612 54.5424 41.6612C53.0592 41.6612 51.6956 42.0201 50.4516 42.7378C49.2555 43.4076 48.2986 44.3645 47.5809 45.6085C46.9111 46.8524 46.5761 48.216 46.5761 49.6992C46.5761 51.1824 46.9111 52.546 47.5809 53.79C48.2986 55.034 49.2555 56.0148 50.4516 56.7325C51.6956 57.4023 53.0592 57.7372 54.5424 57.7372ZM80.0603 16.3272H91.5431V62.6892L86.3758 57.5219H97.2127V68H80.0603V16.3272ZM123.743 68.8612C120.681 68.8612 117.953 68.0478 115.561 66.4211C113.217 64.7465 111.399 62.45 110.107 59.5314C108.815 56.6129 108.169 53.3355 108.169 49.6992C108.169 46.063 108.815 42.7856 110.107 39.867C111.399 36.9485 113.217 34.6758 115.561 33.0491C117.953 31.3745 120.681 30.5372 123.743 30.5372C127.044 30.5372 130.01 31.3745 132.642 33.0491C135.321 34.7237 137.426 37.0203 138.957 39.9388C140.489 42.8574 141.254 46.1108 141.254 49.6992C141.254 53.2876 140.489 56.5411 138.957 59.4596C137.426 62.3782 135.321 64.6748 132.642 66.3493C130.01 68.0239 127.044 68.8612 123.743 68.8612ZM101.997 31.3985H113.48V81.6359H101.997V31.3985ZM121.446 57.7372C122.929 57.7372 124.269 57.4023 125.465 56.7325C126.709 56.0148 127.666 55.034 128.336 53.79C129.054 52.546 129.412 51.1824 129.412 49.6992C129.412 48.216 129.054 46.8524 128.336 45.6085C127.666 44.3645 126.709 43.4076 125.465 42.7378C124.269 42.0201 122.929 41.6612 121.446 41.6612C119.963 41.6612 118.599 42.0201 117.355 42.7378C116.159 43.4076 115.202 44.3645 114.485 45.6085C113.815 46.8524 113.48 48.216 113.48 49.6992C113.48 51.1824 113.815 52.546 114.485 53.79C115.202 55.034 116.159 56.0148 117.355 56.7325C118.599 57.4023 119.963 57.7372 121.446 57.7372ZM147.202 16.3272H158.685V62.6892L153.518 57.5219H164.355V68H147.202V16.3272ZM170.024 71.1578H179.856L175.765 74.1003L179.21 65.7034V69.2201L164.139 31.3985H177.272L186.602 58.3114H183.014L192.272 31.3985H205.19L185.095 81.6359H170.024V71.1578Z" fill="white"/>
</svg>
