<svg width="375" height="165" viewBox="0 0 375 165" fill="none" xmlns="http://www.w3.org/2000/svg">
<g clip-path="url(#clip0_1006_3551)">
<path d="M73.8213 150.274L76.8066 148.996L76.9024 148.961C77.386 148.809 77.9152 149.046 78.1191 149.521C78.3366 150.029 78.1014 150.618 77.5938 150.835L73.1787 152.726L70.3955 149.088L71.1904 148.48L71.9844 147.872L73.8213 150.274ZM385.911 147.258C386.33 146.953 386.906 147.021 387.244 147.398L387.309 147.479L389.809 150.911L389.864 150.997C390.12 151.435 390.007 152.004 389.589 152.309C389.17 152.613 388.594 152.546 388.256 152.168L388.191 152.089L385.691 148.655C385.366 148.209 385.465 147.583 385.911 147.258ZM70.582 147.686C71.0206 147.35 71.6488 147.434 71.9844 147.872L70.3955 149.088C70.06 148.649 70.1435 148.021 70.582 147.686ZM95.3066 141.073C95.8143 140.856 96.4017 141.091 96.6191 141.599C96.8365 142.106 96.6013 142.694 96.0938 142.911L88.6934 146.081C88.1859 146.298 87.5984 146.063 87.3809 145.556C87.1634 145.048 87.3986 144.46 87.9062 144.242L95.3066 141.073ZM59.0322 132.586C59.4435 132.271 60.0211 132.325 60.3682 132.694L60.4346 132.772L65.0547 138.812C65.39 139.251 65.3058 139.878 64.8672 140.214C64.4285 140.549 63.8014 140.466 63.4658 140.027L58.8457 133.987C58.5104 133.549 58.5938 132.921 59.0322 132.586ZM379.809 137.178L379.864 137.264C380.12 137.701 380.007 138.27 379.589 138.575C379.17 138.88 378.594 138.812 378.256 138.435L378.191 138.355L373.191 131.488L374.809 130.312L379.809 137.178ZM113.807 133.15C114.314 132.933 114.902 133.168 115.119 133.676C115.336 134.183 115.101 134.771 114.594 134.988L107.193 138.157C106.686 138.375 106.098 138.139 105.881 137.632C105.664 137.124 105.899 136.537 106.406 136.319L113.807 133.15ZM373.411 130.092C373.858 129.767 374.483 129.865 374.809 130.312L373.191 131.488C372.867 131.042 372.965 130.417 373.411 130.092ZM132.307 125.227C132.814 125.009 133.402 125.245 133.619 125.753C133.836 126.261 133.601 126.848 133.094 127.065L125.693 130.234C125.186 130.452 124.598 130.217 124.381 129.709C124.163 129.201 124.399 128.614 124.906 128.396L132.307 125.227ZM47.4824 117.485C47.8938 117.171 48.4714 117.225 48.8184 117.595L48.8848 117.673L53.5039 123.713L53.5625 123.797C53.8281 124.229 53.7286 124.8 53.3174 125.114C52.9061 125.429 52.3285 125.375 51.9815 125.006L51.916 124.928L47.2959 118.888L47.2373 118.803C46.972 118.371 47.0713 117.8 47.4824 117.485ZM150.902 117.269C151.386 117.117 151.915 117.353 152.119 117.829C152.337 118.337 152.101 118.925 151.594 119.143L144.193 122.312C143.686 122.529 143.098 122.294 142.881 121.786C142.663 121.278 142.899 120.69 143.406 120.473L150.807 117.304L150.902 117.269ZM360.911 112.925C361.33 112.62 361.906 112.688 362.244 113.065L362.309 113.145L367.309 120.012C367.633 120.458 367.535 121.083 367.089 121.408C366.642 121.733 366.017 121.635 365.691 121.188L360.691 114.322L360.636 114.236C360.38 113.799 360.493 113.23 360.911 112.925ZM169.402 109.346C169.886 109.194 170.415 109.43 170.619 109.906C170.837 110.414 170.601 111.002 170.094 111.22L162.693 114.389C162.186 114.606 161.598 114.371 161.381 113.863C161.163 113.356 161.399 112.767 161.906 112.55L169.307 109.381L169.402 109.346ZM35.9326 102.386C36.3712 102.05 36.9984 102.134 37.334 102.572L41.9541 108.612C42.2896 109.051 42.2063 109.679 41.7676 110.015C41.3289 110.35 40.7007 110.266 40.3652 109.827L35.7461 103.787L35.6875 103.703C35.4219 103.272 35.5214 102.7 35.9326 102.386ZM187.807 101.458C188.314 101.241 188.902 101.476 189.119 101.983C189.336 102.491 189.101 103.078 188.594 103.296L181.193 106.466C180.686 106.683 180.098 106.447 179.881 105.939C179.664 105.432 179.899 104.844 180.406 104.627L187.807 101.458ZM348.411 95.7578C348.83 95.4531 349.406 95.5209 349.744 95.8984L349.809 95.9785L354.809 102.845L354.864 102.931C355.12 103.368 355.007 103.937 354.589 104.242C354.142 104.567 353.517 104.468 353.191 104.021L348.191 97.1553C347.866 96.7088 347.965 96.0829 348.411 95.7578ZM206.307 93.5342C206.814 93.3171 207.402 93.553 207.619 94.0606C207.836 94.5682 207.601 95.1556 207.094 95.3731L199.693 98.542C199.186 98.7593 198.598 98.5242 198.381 98.0166C198.164 97.509 198.399 96.9216 198.906 96.7041L206.307 93.5342ZM24.3828 87.2861C24.8215 86.9506 25.4487 87.034 25.7842 87.4727L30.4043 93.5127L30.4619 93.5967C30.7277 94.0283 30.6289 94.5994 30.2178 94.9141C29.7791 95.2496 29.151 95.1662 28.8154 94.7275L24.1953 88.6875C23.86 88.2488 23.9442 87.6216 24.3828 87.2861ZM224.807 85.6113C225.314 85.3942 225.902 85.6294 226.119 86.1367C226.337 86.6444 226.101 87.2328 225.594 87.4502L218.193 90.6191C217.686 90.8364 217.098 90.6013 216.881 90.0938C216.663 89.5862 216.899 88.9988 217.406 88.7813L224.807 85.6113ZM342.309 85.6777L342.364 85.7637C342.62 86.2014 342.507 86.7704 342.089 87.0752C341.67 87.38 341.094 87.3123 340.756 86.9346L340.691 86.8555L335.691 79.9883L337.309 78.8115L342.309 85.6777ZM243.402 77.6533C243.886 77.5018 244.415 77.738 244.619 78.2139C244.837 78.7216 244.601 79.3099 244.094 79.5274L236.693 82.6963L236.598 82.7315C236.114 82.8829 235.585 82.6467 235.381 82.1709C235.163 81.6632 235.399 81.0749 235.906 80.8574L243.307 77.6885L243.402 77.6533ZM18.8545 78.4121C19.19 78.8507 19.1065 79.4789 18.668 79.8145C18.2294 80.1499 17.6012 80.0664 17.2656 79.6279L18.8545 78.4121ZM335.911 78.5918C336.358 78.2667 336.984 78.3651 337.309 78.8115L335.691 79.9883C335.367 79.5419 335.465 78.9169 335.911 78.5918ZM18.8545 78.4121L18.0596 79.0195L17.2656 79.6279L12.6455 73.5879L13.4404 72.9805L14.2344 72.3721L18.8545 78.4121ZM261.807 69.7656C262.314 69.5483 262.902 69.7834 263.119 70.291C263.337 70.7986 263.101 71.386 262.594 71.6035L255.193 74.7734C254.686 74.9906 254.098 74.7546 253.881 74.2471C253.664 73.7395 253.899 73.152 254.406 72.9346L261.807 69.7656ZM12.832 72.1856C13.2706 71.8501 13.8988 71.9336 14.2344 72.3721L12.6455 73.5879C12.31 73.1493 12.3935 72.5211 12.832 72.1856ZM323.411 61.4248C323.83 61.12 324.406 61.1877 324.744 61.5654L324.809 61.6445L329.809 68.5117C330.133 68.9581 330.035 69.5831 329.589 69.9082C329.142 70.2333 328.517 70.1349 328.191 69.6885L323.191 62.8223L323.136 62.7363C322.88 62.2986 322.993 61.7296 323.411 61.4248ZM280.307 61.8428C280.814 61.6254 281.402 61.8605 281.619 62.3682C281.836 62.8758 281.601 63.4632 281.094 63.6807L273.693 66.8496C273.186 67.0669 272.598 66.8319 272.381 66.3242C272.164 65.8166 272.399 65.2292 272.906 65.0117L280.307 61.8428ZM1.28223 57.0859C1.6935 56.7714 2.27113 56.8249 2.61817 57.1943L2.68457 57.2725L7.30469 63.3125C7.64003 63.7512 7.55579 64.3784 7.11719 64.7139C6.67852 65.0494 6.05136 64.966 5.71582 64.5274L1.09571 58.4873C0.760368 58.0487 0.843826 57.4215 1.28223 57.0859ZM298.807 53.9189C299.314 53.7018 299.902 53.9371 300.119 54.4443C300.337 54.952 300.101 55.5404 299.594 55.7578L292.193 58.9268C291.686 59.144 291.098 58.909 290.881 58.4014C290.663 57.8938 290.899 57.3064 291.406 57.0889L298.807 53.9189ZM317.309 51.3447L317.364 51.4307C317.62 51.8684 317.507 52.4374 317.089 52.7422C316.67 53.0469 316.094 52.9791 315.756 52.6016L315.691 52.5225L313.66 49.7324L310.693 51.0039L310.598 51.0391C310.114 51.1905 309.585 50.9543 309.381 50.4785C309.163 49.9708 309.399 49.3825 309.906 49.165L313.606 47.5811L314.339 47.2666L317.309 51.3447ZM-10.2676 41.9854C-9.85621 41.6708 -9.27859 41.7251 -8.93164 42.0947L-8.86523 42.1729L-4.24609 48.2129L-4.1875 48.2969C-3.92192 48.7285 -4.0214 49.2997 -4.43261 49.6143C-4.84391 49.9288 -5.42155 49.8754 -5.76855 49.5059L-5.83398 49.4277L-10.4541 43.3877L-10.5127 43.3027C-10.778 42.8712 -10.6787 42.2998 -10.2676 41.9854ZM-21.8174 26.8857C-21.3788 26.5504 -20.7516 26.6339 -20.416 27.0723L-15.7959 33.1123C-15.4604 33.551 -15.5437 34.1791 -15.9824 34.5147C-16.4211 34.8501 -17.0493 34.7658 -17.3848 34.3272L-22.0039 28.2871L-22.0625 28.2031C-22.3281 27.7715 -22.2286 27.2003 -21.8174 26.8857ZM-33.3672 11.7861C-32.9285 11.4506 -32.3013 11.534 -31.9658 11.9727L-27.3457 18.0127L-27.2881 18.0967C-27.0223 18.5283 -27.1211 19.0994 -27.5322 19.4141C-27.9709 19.7496 -28.599 19.6662 -28.9346 19.2275L-33.5547 13.1875C-33.89 12.7488 -33.8058 12.1216 -33.3672 11.7861ZM-38.8955 2.91212C-38.56 3.35072 -38.6435 3.97888 -39.082 4.31446C-39.5206 4.64995 -40.1488 4.56643 -40.4844 4.12794L-38.8955 2.91212ZM-42.6074 -0.29394C-42.1688 -0.629458 -41.5416 -0.546014 -41.206 -0.107416L-38.8955 2.91212L-39.6904 3.51954L-40.4844 4.12794L-42.7939 1.10743C-43.1295 0.668785 -43.046 0.0416155 -42.6074 -0.29394Z" fill="#DDDDF5"/>
<path d="M77.9076 148.602L80.1479 148.35L81.994 148.467L82.4914 152.97L81.0532 153.076L78.5706 153.281L78.2886 153.501L78.9664 153.597L81.6022 155.494L80.8923 156.599L78.6359 159.389L76.7674 157.714L75.5587 156.749L75.7588 158.523L75.9615 160.324L76.0147 160.799L73.4279 161.304L71.4551 161.312L71.4083 160.894L71.3231 160.145L71.0494 158.792L71.1812 158.939L71.0514 157.726L70.9576 157.314L68.5561 160.533L67.4293 159.628L64.9225 157.644L66.7453 155.237L67.2655 154.417L64.2184 154.949L63.1296 154.996L62.8493 150.296L64.2126 150.224L66.8757 149.867L64.0992 147.607L63.7125 147.299L66.4119 143.632L67.1075 144.142L69.3328 146.095L69.8661 146.27L69.5553 142.777L69.3048 142.203L73.7722 141.512L73.8749 141.934L73.9856 142.863L74.2284 145.628L74.9468 144.955L76.8619 142.555L77.7382 143.253L78.484 144.088L80.3727 145.512L78.1998 148.078L77.9076 148.602Z" fill="#DDDDF5"/>
<path d="M319.014 53.3882L320.188 56.3968L320.706 58.9954L314.655 61.3417L313.979 59.3899L312.781 56.0289L312.372 55.7196L312.49 56.6929L310.833 61.0403L309.043 60.4642L304.35 58.3679L305.981 55.1646L306.872 53.1362L304.49 54.0661L302.072 55.0099L301.433 55.2586L299.781 51.8637L299.044 49.1355L299.605 48.917L300.61 48.5233L302.383 47.6461L302.228 47.8829L303.859 47.2566L304.395 46.9751L299.056 44.8357L299.893 42.9428L301.716 38.7423L305.72 40.3792L307.047 40.7975L305.188 36.7752L304.722 35.2854L311.125 33.1671L311.727 35.0276L313.202 38.5827L315.307 33.9073L315.592 33.2585L321.662 35.6453L321.212 36.7958L319.328 40.5952L319.282 41.3979L324.003 39.6818L324.704 39.1239L327.306 45.0535L326.76 45.3512L325.514 45.8466L321.776 47.2003L322.972 47.9471L327 49.7145L326.356 51.1847L325.474 52.5246L324.199 55.6632L319.846 53.6001L319.014 53.3882Z" fill="#DDDDF5"/>
</g>
<defs>
<clipPath id="clip0_1006_3551">
<rect width="375" height="165" fill="white"/>
</clipPath>
</defs>
</svg>
