<svg width="20" height="20" viewBox="0 0 20 20" fill="none" xmlns="http://www.w3.org/2000/svg">
<path d="M9.91939 15.3889C9.91939 15.551 9.85822 15.7064 9.74933 15.821C9.64044 15.9356 9.49275 16 9.33876 16C6.40306 16 4 13.5515 4 10.5C4 7.44852 6.40306 5 9.33876 5C11.7426 5 13.7895 6.64185 14.4522 8.91193L14.9191 8.08081C14.9974 7.94121 15.1252 7.84008 15.2744 7.79966C15.4236 7.75924 15.5819 7.78285 15.7145 7.8653C15.8472 7.94774 15.9433 8.08226 15.9817 8.23927C16.0201 8.39628 15.9976 8.56292 15.9193 8.70252L14.6574 10.9473C14.5801 11.085 14.4546 11.1854 14.3079 11.2268C14.1611 11.2683 14.0047 11.2475 13.8724 11.169L11.6876 9.87259C11.6212 9.83316 11.5628 9.78034 11.5157 9.71716C11.4687 9.65397 11.4339 9.58164 11.4134 9.50432C11.3929 9.42699 11.3871 9.34617 11.3963 9.26648C11.4055 9.18679 11.4295 9.10978 11.467 9.03985C11.5044 8.96993 11.5546 8.90845 11.6147 8.85894C11.6747 8.80942 11.7434 8.77284 11.8169 8.75127C11.8904 8.72971 11.9671 8.72359 12.0429 8.73326C12.1186 8.74293 12.1918 8.7682 12.2582 8.80763L13.3978 9.48393C12.9534 7.61963 11.3145 6.22222 9.33953 6.22222C7.01853 6.22222 5.16127 8.15089 5.16127 10.5C5.16127 12.8491 7.01853 14.7778 9.33876 14.7778C9.49275 14.7778 9.64044 14.8422 9.74933 14.9568C9.85822 15.0714 9.91939 15.2268 9.91939 15.3889Z" fill="#4F4B4B"/>
</svg>
