<svg width="36" height="36" viewBox="0 0 36 36" fill="none" xmlns="http://www.w3.org/2000/svg">
<path d="M8.82774 23.4611C8.57258 23.7164 8.57268 24.1302 8.82796 24.3854L11.6162 27.1723C11.8715 27.4275 12.2852 27.4274 12.5404 27.1722L14.2598 25.4529C14.6715 25.0412 15.3755 25.3328 15.3755 25.915V28.3464C15.3755 28.7074 15.6681 29 16.029 29H19.9727C20.3337 29 20.6263 28.7074 20.6263 28.3464V25.915C20.6263 25.3328 21.3303 25.0412 21.742 25.4529L23.4612 27.1721C23.7164 27.4274 24.1302 27.4274 24.3855 27.1721L27.1723 24.3854C27.4274 24.1302 27.4275 23.7165 27.1724 23.4612L25.4522 21.7401C25.0406 21.3284 25.3323 20.6245 25.9145 20.6245H28.3464C28.7074 20.6245 29 20.3319 29 19.971V16.029C29 15.6681 28.7074 15.3755 28.3464 15.3755H25.915C25.3328 15.3755 25.0412 14.6715 25.4529 14.2598L27.1722 12.5404C27.4274 12.2852 27.4275 11.8715 27.1723 11.6162L24.3855 8.82808C24.1303 8.57275 23.7164 8.5727 23.4611 8.82798L21.742 10.5471C21.3303 10.9588 20.6263 10.6672 20.6263 10.085V7.65356C20.6263 7.29261 20.3337 7 19.9727 7H16.029C15.6681 7 15.3755 7.29261 15.3755 7.65356V10.085C15.3755 10.6672 14.6715 10.9588 14.2598 10.5471L12.5405 8.82787C12.2853 8.57264 11.8715 8.57264 11.6162 8.82787L8.82787 11.6162C8.57264 11.8715 8.57264 12.2853 8.82787 12.5405L10.5471 14.2598C10.9588 14.6715 10.6672 15.3755 10.085 15.3755H7.65356C7.29261 15.3755 7 15.6681 7 16.029V19.971C7 20.3319 7.29261 20.6245 7.65356 20.6245H10.0855C10.6677 20.6245 10.9594 21.3284 10.5478 21.7401L8.82774 23.4611Z" fill="#9796C7"/>
<path d="M18.0146 21.5977C16.5498 21.5977 15.5098 20.8115 15.4658 19.6543H16.5596C16.5986 20.2744 17.2139 20.6699 18.0049 20.6699C18.8594 20.6699 19.4795 20.2061 19.4795 19.5176C19.4795 18.8193 18.8984 18.3213 17.8877 18.3164H17.2822V17.4375H17.8877C18.6934 17.4424 19.2549 16.9932 19.2549 16.3145C19.2549 15.6699 18.7715 15.2305 18.0244 15.2305C17.3164 15.2305 16.6816 15.626 16.6572 16.2656H15.6221C15.6514 15.1133 16.7158 14.332 18.0342 14.332C19.4258 14.332 20.2998 15.2109 20.29 16.2559C20.2998 17.0615 19.8018 17.6377 19.04 17.8281V17.877C20.0068 18.0137 20.5684 18.6631 20.5635 19.5566C20.5684 20.7334 19.4795 21.5977 18.0146 21.5977Z" fill="white"/>
</svg>
