<svg width="44" height="44" viewBox="0 0 44 44" fill="none" xmlns="http://www.w3.org/2000/svg">
<path d="M10.9933 28.5533C10.6871 28.8597 10.6873 29.3562 10.9936 29.6624L14.3395 33.0068C14.6458 33.313 15.1423 33.3129 15.4485 33.0067L17.5118 30.9435C18.0058 30.4494 18.8506 30.7994 18.8506 31.4981V34.4157C18.8506 34.8489 19.2017 35.2 19.6349 35.2H24.3673C24.8004 35.2 25.1516 34.8489 25.1516 34.4157V31.4981C25.1516 30.7993 25.9964 30.4494 26.4904 30.9435L28.5535 33.0066C28.8598 33.3129 29.3563 33.3129 29.6626 33.0066L33.0068 29.6624C33.313 29.3562 33.313 28.8598 33.0069 28.5535L30.9427 26.4882C30.4488 25.994 30.7988 25.1495 31.4974 25.1495H34.4158C34.8489 25.1495 35.2001 24.7983 35.2001 24.3652V19.6348C35.2001 19.2017 34.8489 18.8506 34.4158 18.8506H31.4981C30.7994 18.8506 30.4495 18.0058 30.9435 17.5117L33.0067 15.4485C33.313 15.1423 33.313 14.6458 33.0069 14.3395L29.6626 10.9937C29.3564 10.6873 28.8597 10.6873 28.5534 10.9936L26.4904 13.0565C25.9964 13.5506 25.1516 13.2007 25.1516 12.502V9.58429C25.1516 9.15115 24.8004 8.80002 24.3673 8.80002H19.6349C19.2017 8.80002 18.8506 9.15115 18.8506 9.58429V12.502C18.8506 13.2007 18.0058 13.5506 17.5118 13.0565L15.4487 10.9935C15.1424 10.6872 14.6458 10.6872 14.3395 10.9935L10.9935 14.3395C10.6872 14.6458 10.6872 15.1424 10.9935 15.4486L13.0566 17.5117C13.5506 18.0058 13.2007 18.8506 12.502 18.8506H9.58432C9.15118 18.8506 8.80005 19.2017 8.80005 19.6348V24.3652C8.80005 24.7983 9.15118 25.1495 9.58432 25.1495H12.5027C13.2013 25.1495 13.5513 25.994 13.0574 26.4882L10.9933 28.5533Z" fill="#E46A61"/>
<path d="M22.0176 26.1172C20.2597 26.1172 19.0117 25.1738 18.959 23.7852H20.2715C20.3183 24.5293 21.0566 25.0039 22.0058 25.0039C23.0312 25.0039 23.7754 24.4473 23.7754 23.6211C23.7754 22.7832 23.0781 22.1855 21.8652 22.1797H21.1386V21.125H21.8652C22.832 21.1309 23.5058 20.5918 23.5058 19.7773C23.5058 19.0039 22.9258 18.4766 22.0293 18.4766C21.1797 18.4766 20.4179 18.9512 20.3886 19.7188H19.1465C19.1816 18.3359 20.459 17.3984 22.041 17.3984C23.7109 17.3984 24.7597 18.4531 24.748 19.707C24.7597 20.6738 24.1621 21.3652 23.248 21.5938V21.6523C24.4082 21.8164 25.082 22.5957 25.0761 23.668C25.082 25.0801 23.7754 26.1172 22.0176 26.1172Z" fill="white"/>
</svg>
