<svg width="24" height="24" viewBox="0 0 24 24" fill="none" xmlns="http://www.w3.org/2000/svg">
<path d="M4.24643 8.80396C4.10506 6.80084 5.1875 5.29361 6.95387 5.18185C7.95253 5.11867 9.5444 5.58279 9.8826 7.27379C10.301 9.36573 8.92694 9.54635 9.8826 11.4577C10.301 12.2944 10.2689 13.2889 9.04583 13.968C7.21909 14.9822 4.45848 11.8087 4.24643 8.80396Z" stroke="black" stroke-width="1.5" stroke-linecap="round" stroke-linejoin="round"/>
<path d="M19.3825 13.5198C19.5283 11.4553 18.4126 9.90178 16.592 9.7866C15.5628 9.72148 13.922 10.1998 13.5735 11.9427C13.1422 14.0988 14.5584 14.285 13.5735 16.2549C13.1422 17.1174 13.1753 18.1424 14.4359 18.8423C16.3187 19.8876 19.164 16.6167 19.3825 13.5198Z" stroke="black" stroke-width="1.5" stroke-linecap="round" stroke-linejoin="round"/>
</svg>
